<?xml version="1.0" encoding="UTF-8"?>
<svg xmlns="http://www.w3.org/2000/svg" viewBox="72.52 -2 814.97 964">
  <!-- Generated from amCharts geodata | Mercator projection -->
    <path d="M686.83,132.86L691.87,128.89L691.95,127.79L688.32,121.87L685.76,120.03L684.47,117.86L685.72,113.12L688.28,112.44L690.77,110.26L695.87,115.21L699.45,116.83L701.55,119.21L706.17,118.34L706.47,117.55L709.72,116.99L709.26,118.6L710.22,119.82L715.09,121.76L717.8,120.46L720.8,117.91L724.66,112.5L724.84,108.11L722.29,102.96L723.29,99.35L722.04,96.7L721.21,92.48L723.1,88.56L725.83,86.91L727.24,86.81L731.02,84.35L732.74,80.84L733.5,77.2L733.08,71.33L732.85,62.55L736.83,55.55L737.22,50.21L738.16,45.75L737.6,39.66L736.17,32.5L730.52,18.86L730.08,14.86L731.68,12.5L733.14,8.86L732.37,6.26L732.65,3.87L735.01,6.57L738.28,6.05L740.79,4.29L741.81,0.58L743.44,0L744.63,2.07L746.46,3.65L747.63,6.38L751.93,9.54L756.03,15.37L760.77,21.09L765.23,25.72L768.87,32.98L772.5,39.19L774.8,41.86L777.29,43.95L781.82,49.73L792.19,57.94L795.11,59.6L795.72,61.37L798.06,63.16L804.93,66.77L810.94,69.16L821.87,72.31L825.91,73.18L828.14,72.96L828.29,76.55L830.99,80.35L836.95,82.23L843.29,82.61L846.45,82.49L849.5,80.99L852.28,78.3L855.15,74.73L860.01,70.17L862.59,68.57L863.82,65.87L865.85,63.7L867.31,61.13L869.02,64.73L868.33,67.15L866.77,70L865.08,71.72L863.97,76.19L860.75,80.16L859,84.11L858.81,87.14L857.82,88.43L858.15,91.44L860.65,96.25L863.41,99.91L864.3,102.19L865.22,107.2L867.18,111.44L864.37,110.92L867.67,114.69L872.41,115.84L879.39,109.31L885.48,109.69L882.96,112.31L879.74,112.88L876.26,114.8L874.77,120.27L871.04,119.5L866,120.45L863.21,122.12L860.87,121.73L859.71,124.53L856.5,128.99L854.6,129.91L851.07,129.72L849.4,128.24L849.05,126L847.69,126.2L846.24,127.86L845.43,130.17L847.56,132.29L843.83,132.07L841.69,131.41L835.04,131.38L833.77,131.1L830.84,128.74L825.16,129.74L820.66,131.94L814.35,136.66L804.56,146.47L801.61,150.13L796.99,157.29L794.15,163.47L793.64,166.58L794.65,168.66L793.14,176.5L791.46,179.35L791.23,182.36L784.6,175.41L775.59,171.65L771.36,169.5L767.13,166.62L760.58,163.35L756.17,160.24L752.75,156.42L751.31,155.68L746.79,154.68L742.68,150.86L739.3,148.63L735.91,147.64L732.24,147.52L729.65,147.97L725.59,149.51L721.72,151.92L716.74,156.16L713.79,157.82L709.85,162.38L709.22,163.77L707.22,163.02L704.52,155.96L701.06,153.13L700.85,152.05L698.49,149.76L696.18,149.59L693.86,150.58L692.06,149.48L689.82,149.53L686.71,152.9L684.03,158.03L682.7,162.77L683.22,166.4L687.53,168.64L691.57,172.4L694.01,173.28L696.57,172.28L700.37,172.86L702.64,176.99L705.67,179.26L707.67,182.76L713.52,185.3L715.92,188.38L713.11,189.22L711.08,191.65L707.99,192.89L706.4,191.42L704.06,190.46L699.16,189.39L697.69,187.44L695.34,188.19L694.54,191.33L691.87,193.31L689.48,193.48L688.39,195.72L688.63,200.52L687.52,202.34L685.78,202.4L682.13,204.02L680.46,207.54L677.83,206.63L675.71,207.04L673.58,204.96L672.05,200.63L671.88,199.03L672.64,195.72L675.14,190.07L675.14,188.11L677.1,187.17L677.67,182.13L676.93,178.43L674.64,174.54L672.15,172.27L669.73,172.05L668.73,169.6L667.15,167.95L665.03,167.18L663.95,163.24L664.53,161.15L666.28,159.22L666.89,157.45L666.94,152.51L666.02,149.33L667.74,145.65L669.83,144.5L674.07,144.38L675.21,142.68L677.78,141.32L679.37,137.74L681.94,140.61L683.6,140.17L683.77,137.57L685.3,136.02ZM711.34,7.92L711.22,10.71L710.09,12.08L708.48,7.45L708.9,5.02L711.61,5.17ZM714.18,18.37L714.02,16.08L716.4,13.74L720.24,16L721.19,19.37L717.84,22.15L715.29,20.15ZM654.97,169.67L654.99,171.9L653.7,174.99L651.32,175.08L651.44,171.9L650.73,170.48L652.03,167.8L655.58,167.09Z" fill="#dadada" stroke="#fff" stroke-width="0.5" id="JP-01" data-name="Hokkaido"/>
    <path d="M734.22,254.14L730.75,256.3L730.55,257.85L728.9,259.13L726.58,257.7L725.33,257.86L722.14,259.91L720.87,257.9L717.23,260.68L714.4,261.38L713.3,263.24L709.49,265.32L707.63,263.87L707.35,263.21L708.29,259.15L709.06,258.66L708.54,255.22L704.58,255.66L704.59,251.9L702.59,252.17L702.15,254.18L700.84,254L696.24,256.41L694.3,254.84L692.43,256.41L690.3,254.19L688.81,254.19L688.32,252.62L685.88,252.83L684.94,254.69L683.36,254.36L680.85,255.07L679.34,254.56L676.6,254.8L675.18,253.28L673.75,253.93L673.27,255.56L670.22,255.11L670.71,251.8L670.35,249.1L669.51,247.49L667.73,247.59L667.45,246.07L670.76,243.43L672.65,240.08L674.98,238.78L677.27,240.07L679.92,238.08L681.43,237.89L683.3,233.85L684.11,230.03L684.24,222.95L682.96,221.55L684.33,220.31L685.08,214.81L687.1,216.1L688.34,217.95L690.77,218.27L692.63,216.39L694.66,217.09L696.1,219.03L695.67,222.66L696.39,227.36L697.74,233.48L700.08,235.88L701.94,235.48L704.15,233.09L704.15,229.73L704.76,227.03L707.54,228.04L709.82,230.84L711.52,231.69L712.5,233.33L713.96,233.68L715.67,232.13L716.75,230.17L717.81,226.72L718.23,222.15L719.33,220.02L717.99,216.19L716.02,213.93L714.93,214.09L713.36,217.1L711.25,218.6L708.43,217.83L707.19,219.04L703.82,219.66L702.24,221.29L700.51,220.42L701.06,215.2L701.79,211.86L702.57,210.63L703.16,207.21L705.84,202.91L705.96,200.88L709.15,203.81L711.61,204.01L713.25,204.95L716.17,208.62L718.88,210.21L720.53,210.41L723.85,208.9L725.32,210.21L723.41,219.38L723.54,222.51L723.23,228.87L723.52,233.57L724.25,239.23L726.02,246.61L728.32,250.05L730.68,250.61Z" fill="#dadada" stroke="#fff" stroke-width="0.5" id="JP-02" data-name="Aomori"/>
    <path d="M732.29,324.42L730.12,323.5L727.44,323.26L727.19,327.55L724.48,333.49L720.63,331.56L718.96,333.18L718.64,334.48L714.66,333.31L713.51,330.9L714.61,329.87L712.8,328.56L708.7,329.03L707.68,327.51L705.01,326.6L702.75,324.91L700.98,325.17L700.83,323.03L702.3,320.46L700.23,319.02L700.24,316.79L701.88,314.26L700.67,313.85L701.3,311.88L698.23,309.04L696.79,303.6L699.79,297.78L699.3,296.9L701.81,294.67L702.77,292.46L702.02,287.99L703.55,285.25L701.46,284.03L701.34,282.04L702.85,281.2L704.85,281.23L703.89,278.68L703.75,272.08L704.72,271.22L704.58,269.17L705.76,265.34L707.63,263.87L709.49,265.32L713.3,263.24L714.4,261.38L717.23,260.68L720.87,257.9L722.14,259.91L725.33,257.86L726.58,257.7L728.9,259.13L730.55,257.85L730.75,256.3L734.22,254.14L736.77,257.94L739.62,264.4L737.81,266.42L740.39,267.54L741.25,268.74L739.46,270.21L739.67,272.04L742.13,274.92L744.16,276.45L743.57,279.43L744.91,281.7L745.33,287.25L744.87,289.66L746.32,292.05L747.03,294.76L748.42,297.2L747,298.02L745.4,300.2L748,300.82L747.21,303.3L743.49,304.9L742,307.11L744.1,306.99L744.92,307.99L743.06,309.59L744.14,312.6L740.89,314.02L742.11,317.39L741.28,318.7L739.68,318.17L739.09,320.73L739.82,321.92L735.95,322.41L735.25,325.38Z" fill="#dadada" stroke="#fff" stroke-width="0.5" id="JP-03" data-name="Iwate"/>
    <path d="M706.64,374.85L704.01,375.02L704.07,379.07L701.42,379.1L699.23,379.89L697.54,377.56L697.88,375.43L695.31,374.05L690.85,374.61L689.72,372.51L687.6,371.22L685.5,372.29L682.92,371.05L682.81,367.36L686,367.34L687.84,366.31L688.19,364.41L690.25,361.46L689.81,359.18L690.11,357.28L692.07,354.81L691.99,353.26L693.8,351.56L694.94,348.58L692.97,344.83L693.62,342.63L692.53,340.6L694.63,340.14L695.43,338L695.03,336.18L696.29,334.13L694.75,333.3L694.4,331.31L692.85,328.76L696.62,328.42L699.67,325.5L700.98,325.17L702.75,324.91L705.01,326.6L707.68,327.51L708.7,329.03L712.8,328.56L714.61,329.87L713.51,330.9L714.66,333.31L718.64,334.48L718.96,333.18L720.63,331.56L724.48,333.49L727.19,327.55L727.44,323.26L730.12,323.5L732.29,324.42L733.01,327.68L730.93,328.34L730.76,331.45L728.23,333.01L727.95,334.04L729.83,335.31L726.54,338.12L726.13,339.59L728.57,340.18L728.35,341.44L726.18,343.63L729.32,345.36L728.79,347.13L727.26,346.12L727.26,349.2L726.41,351.5L727.71,351.96L728.99,355.32L727.91,357.04L724.39,353.7L725.94,352.46L724.93,351.27L723.31,351.94L722.5,350.75L720.19,350.45L717.29,351.28L714.98,352.85L713.06,351.87L711.42,352.65L710.73,354.79L712.29,356.18L709.96,357.56L707.69,361.61L706.79,364.32L706.04,371.21Z" fill="#dadada" stroke="#fff" stroke-width="0.5" id="JP-04" data-name="Miyagi"/>
    <path d="M670.22,255.11L673.27,255.56L673.75,253.93L675.18,253.28L676.6,254.8L679.34,254.56L680.85,255.07L683.36,254.36L684.94,254.69L685.88,252.83L688.32,252.62L688.81,254.19L690.3,254.19L692.43,256.41L694.3,254.84L696.24,256.41L700.84,254L702.15,254.18L702.59,252.17L704.59,251.9L704.58,255.66L708.54,255.22L709.06,258.66L708.29,259.15L707.35,263.21L707.63,263.87L705.76,265.34L704.58,269.17L704.72,271.22L703.75,272.08L703.89,278.68L704.85,281.23L702.85,281.2L701.34,282.04L701.46,284.03L703.55,285.25L702.02,287.99L702.77,292.46L701.81,294.67L699.3,296.9L699.79,297.78L696.79,303.6L698.23,309.04L701.3,311.88L700.67,313.85L701.88,314.26L700.24,316.79L700.23,319.02L702.3,320.46L700.83,323.03L700.98,325.17L699.67,325.5L696.62,328.42L692.85,328.76L689.57,326.93L688.49,323.58L686.52,323.43L685.87,321.99L683.86,322.49L678.13,320.74L675.34,319.09L674.96,316.9L672.45,318.21L667.79,317.45L669.05,314.7L668.63,312.98L670.01,309.39L671.31,309.19L673.06,304.73L674.55,296.92L674.88,292.86L674.72,289.17L673.44,284.04L670.87,281.01L671.8,279.5L673.17,279.94L674.28,281.59L675.25,273.7L674.61,272.32L672.63,271.51L670.79,273.83L669.67,277.68L670.68,278.46L670.53,280.82L669.14,280.29L667.14,281.04L667.45,282.62L663.12,281.93L661.75,279.02L661.35,276.61L662.81,276.4L665.18,277.7L667.5,276.52L669.17,274.59L670.77,271.66L672.25,267.2L673.36,261.62L673.42,258.5Z" fill="#dadada" stroke="#fff" stroke-width="0.5" id="JP-05" data-name="Akita"/>
    <path d="M682.92,371.05L682.36,374.24L682.44,377.98L683.46,378.74L680.98,381.74L678.57,381.26L676.39,382.09L674.46,380.22L672.17,381.07L670.38,377.94L668.59,378.74L667.47,378.01L665.72,379.09L664.56,377.83L663.09,378.17L662.26,376.73L660.21,376.38L658.99,374.23L660.08,368.32L661.37,367.37L660.71,365.95L661.34,364.43L661.04,361.99L662.01,360.46L664.94,360.86L667.49,359.27L668.94,356.3L666.8,354.01L663.38,353.11L661.9,351L662.63,347.28L659.44,346.14L656.07,344.36L656,343.73L658.25,338.6L661.48,335.79L663.26,333.64L664.61,330.22L665.9,324.81L666.83,323.45L668.12,318.53L667.79,317.45L672.45,318.21L674.96,316.9L675.34,319.09L678.13,320.74L683.86,322.49L685.87,321.99L686.52,323.43L688.49,323.58L689.57,326.93L692.85,328.76L694.4,331.31L694.75,333.3L696.29,334.13L695.03,336.18L695.43,338L694.63,340.14L692.53,340.6L693.62,342.63L692.97,344.83L694.94,348.58L693.8,351.56L691.99,353.26L692.07,354.81L690.11,357.28L689.81,359.18L690.25,361.46L688.19,364.41L687.84,366.31L686,367.34L682.81,367.36Z" fill="#dadada" stroke="#fff" stroke-width="0.5" id="JP-06" data-name="Yamagata"/>
    <path d="M701.57,422.48L698.7,421.82L695.19,420.53L694.35,421.91L692.28,422.82L690.03,425.46L686.67,423.6L686.04,421.43L684.52,420.97L683.12,419.06L682.09,419.01L681.49,416.19L679.95,414.69L679.78,413.27L676.43,410.56L671.25,409.08L667.77,409.36L666.43,410.17L666.09,411.85L660.89,413.47L655.64,416.98L653.12,417.43L651.81,419.34L650.06,420.15L644.81,418.5L645.45,413.77L644.68,411.18L645.33,408.79L644.46,407.06L642.1,405.26L643.91,402.65L644.54,398.27L643.28,397.22L644.34,395.51L646.44,395.42L649.36,394.52L650.93,394.7L651.22,392.75L652.84,392.38L656.59,392.94L656.95,389.47L656.24,386.19L659.07,384.25L660.15,381.36L663.09,378.17L664.56,377.83L665.72,379.09L667.47,378.01L668.59,378.74L670.38,377.94L672.17,381.07L674.46,380.22L676.39,382.09L678.57,381.26L680.98,381.74L683.46,378.74L682.44,377.98L682.36,374.24L682.92,371.05L685.5,372.29L687.6,371.22L689.72,372.51L690.85,374.61L695.31,374.05L697.88,375.43L697.54,377.56L699.23,379.89L701.42,379.1L704.07,379.07L704.01,375.02L706.64,374.85L707.35,377.24L708.67,378.04L708.76,380.43L709.57,381.84L710.1,389.77L710.6,393.08L710.6,399.25L710.1,401.03L709.08,409.72L707.67,417.32L704.49,419.53L702.8,419.96Z" fill="#dadada" stroke="#fff" stroke-width="0.5" id="JP-07" data-name="Fukushima"/>
    <path d="M704.42,474.19L699.78,471.33L698.52,469.04L695.43,467.99L693.32,466.18L691.63,466.25L689.62,465.28L685.89,466.25L684.29,467.78L682.8,467.36L678.21,468.66L677.13,467.32L672.57,465.72L670.31,464.11L667.92,460.92L664.5,457.26L663.05,457.73L661.44,454.07L661.76,452.41L663.12,452.29L666.17,450.68L667.2,447.52L669.3,448.04L669.53,446.4L672.64,444.92L676.36,443.77L677.13,442.9L679.45,443.58L680.11,441.03L681.82,437.57L681.78,434.19L680.73,430.55L683.01,429.44L682.02,426.98L682.44,424.56L681.93,422.72L682.09,419.01L683.12,419.06L684.52,420.97L686.04,421.43L686.67,423.6L690.03,425.46L692.28,422.82L694.35,421.91L695.19,420.53L698.7,421.82L701.57,422.48L701.64,422.51L701.69,422.54L699.93,425.84L697.74,433.29L696.45,435.47L695.01,439.7L694.89,443.15L695.31,445.06L693.01,448.36L693.18,451.47L694.83,457.58L697.18,463.02L699.61,466.95L699.8,467.83L702.82,472.47Z" fill="#dadada" stroke="#fff" stroke-width="0.5" id="JP-08" data-name="Ibaraki"/>
    <path d="M682.09,419.01L681.93,422.72L682.44,424.56L682.02,426.98L683.01,429.44L680.73,430.55L681.78,434.19L681.82,437.57L680.11,441.03L679.45,443.58L677.13,442.9L676.36,443.77L672.64,444.92L669.53,446.4L669.3,448.04L667.2,447.52L666.17,450.68L663.12,452.29L661.76,452.41L660.2,451.64L658.72,449.19L656.65,449.54L655.33,448.74L653.47,449.28L651.4,447.46L651.48,446.39L649.51,444.92L649.44,443.95L651.14,441.02L651.45,438.83L653.73,435.38L653.08,434.12L650.81,434.23L648.08,432.86L648.41,430.3L649.51,428.65L648.99,426.47L650.88,423.84L648.98,423.02L650.06,420.15L651.81,419.34L653.12,417.43L655.64,416.98L660.89,413.47L666.09,411.85L666.43,410.17L667.77,409.36L671.25,409.08L676.43,410.56L679.78,413.27L679.95,414.69L681.49,416.19Z" fill="#dadada" stroke="#fff" stroke-width="0.5" id="JP-09" data-name="Tochigi"/>
    <path d="M660.2,451.64L658.72,453.06L657.76,452.16L655.62,452.9L653.04,453.07L649.67,450.56L648.08,450.95L645.16,450.7L642.01,449.1L640.72,449L638.44,452.67L637.62,455.82L634.78,455.95L633.54,457.66L631.09,458.16L629.4,460.04L627.1,460.08L625.71,461.95L623.25,460.8L623.16,456.86L622.59,453.44L621.44,449.03L623.01,448.33L623.48,445.01L622.95,442.86L621.41,442.4L619.29,443.33L616.46,443.3L614.15,441.92L614.02,439.51L615.12,434.56L619.4,429.66L621.61,429.45L624.89,427.81L626.03,426.95L628.25,427.77L629.85,425.59L633.03,422.73L633.58,420.96L635.14,421.16L634.82,417.09L637.85,416.56L639.38,415.2L639.99,413.55L642.46,416.32L642.66,417.73L644.81,418.5L650.06,420.15L648.98,423.02L650.88,423.84L648.99,426.47L649.51,428.65L648.41,430.3L648.08,432.86L650.81,434.23L653.08,434.12L653.73,435.38L651.45,438.83L651.14,441.02L649.44,443.95L649.51,444.92L651.48,446.39L651.4,447.46L653.47,449.28L655.33,448.74L656.65,449.54L658.72,449.19Z" fill="#dadada" stroke="#fff" stroke-width="0.5" id="JP-10" data-name="Gunma"/>
    <path d="M670.62,476.44L669.97,475.01L667.98,470.8L669.03,467.82L665.92,461.81L665.82,459.88L664.5,457.26L667.92,460.92L670.31,464.11L672.57,465.72L677.13,467.32L678.21,468.66L682.8,467.36L684.29,467.78L685.89,466.25L689.62,465.28L691.63,466.25L693.32,466.18L695.43,467.99L698.52,469.04L699.78,471.33L704.42,474.19L700.01,475.37L698.52,474.96L695.53,476.21L692.08,479.18L689.49,482.1L687.42,486.14L686.86,488.85L687.04,491.58L687.75,492.77L686.62,498.08L685.37,498.34L684.5,500.24L681.13,501.03L677.17,501.13L675.66,503.17L672.01,505.71L670.41,510.18L668.47,510.98L666.83,510.84L665.96,509.24L663.74,508.34L667.04,507.11L667.17,505.41L665.93,503.52L665.92,498L667.64,496.67L667.07,493.58L665.68,492.72L666.93,489.65L668.7,490.43L668.86,488.21L669.64,486.73L672.27,485.92L674.76,482.11L675.88,481.13L675.56,479.67L671.9,475.89Z" fill="#dadada" stroke="#fff" stroke-width="0.5" id="JP-12" data-name="Chiba"/>
    <path d="M564.65,417.85L562.34,417.66L560.19,418.54L558.66,420.06L558.52,421.84L557.4,424.53L557.27,427.21L556.25,428.42L556.38,431.09L554.96,433.39L556.16,436.57L554.77,442.09L555.61,445.6L555.28,448.04L557.24,450.65L555.56,453.27L554.37,454.21L554.78,455.58L553.85,457.62L550.34,458.52L549.89,457.36L546.45,454.63L542.32,455.33L541.11,453.91L538.66,453.44L538.2,451.12L535.08,448.15L537.12,445.54L538.83,444.94L541.45,442.41L549.76,431.17L551.79,427.5L553.4,423.82L554.26,420.42L554.34,416.12L552.58,413.35L552.81,410.17L550.67,409.22L551.8,404.86L552.54,404.21L552.54,401.1L555.85,398.21L557.95,397.26L560.04,397.78L565.43,395.02L568.03,393.03L570.39,392.72L572.84,391.39L574.75,391.62L575.94,395.26L572.95,395.71L571.97,396.38L571.45,398.57L572.55,400.53L571.32,402.35L568.01,402.26L566.35,403.19L565.29,405.96L563.14,407.56L562.1,406.56L559.93,406.13L558.13,409.31L557.86,411.12L559.67,411.76L561.77,413.82L564.57,411.33Z" fill="#dadada" stroke="#fff" stroke-width="0.5" id="JP-17" data-name="Ishikawa"/>
    <path d="M535.08,448.15L538.2,451.12L538.66,453.44L541.11,453.91L542.32,455.33L546.45,454.63L549.89,457.36L550.34,458.52L553.85,457.62L552.87,461.81L553.7,463.49L556.13,465.91L556.68,468.18L555.2,470.49L552.71,470.44L552.1,471.07L547.13,471.71L545.61,471.31L542.05,471.82L540.23,470.95L538.2,471.92L538.18,473.74L536.35,476.8L531.76,475.3L531.76,477.13L532.72,479.84L532.46,481.23L530.41,480.63L529.77,482.62L527.37,482.87L525.67,484.68L524.24,483.24L523.4,484.85L522.99,487.33L521.25,488.92L519.38,488.17L517.76,490.67L515.22,491.16L512.42,490.05L509.21,489.7L508.96,488.08L506.53,485.81L507.07,483.94L506.1,483.16L506.86,481.48L508.49,481.81L508.1,483.83L509.09,484.54L513.22,485.02L515.69,484.82L517.03,482.67L520.08,482.35L520.93,480.06L525.21,478.46L525.29,475.28L524.48,474.02L526.79,472.17L527.52,473.29L527.09,475.95L528.87,476.75L529.76,473.91L529.8,471.53L528.75,469.42L525.93,466.59L526.08,464.53L524.61,462.32L526.57,459.95L527.21,457.17L528.77,455.44L531.11,451.42Z" fill="#dadada" stroke="#fff" stroke-width="0.5" id="JP-18" data-name="Fukui"/>
    <path d="M487.38,537.66L487.79,539.08L483.97,540.65L482.15,542.17L479.67,542.53L476.85,538.01L478.09,536.22L479.68,536.23L482.14,530.97L483.65,530.13L485.42,527.32L487.18,526.52L488.61,524.43L490.46,525.43L489.05,528.21L485.75,532.56L485.73,535.43ZM465.66,518.26L464.65,515.7L462.32,513.02L463.63,510.59L462.37,509L464.64,504.59L464.76,502.86L465.85,502.39L466.3,500.35L468,500L467.06,497.77L467.79,495.83L468.86,496.31L471.91,494.17L471.64,490.64L470.49,489.83L470.51,487.39L469.15,486.76L468.61,482.33L467.74,479.93L466.46,478.97L470.42,477.74L472.68,476.36L474.91,476.93L475.69,477.8L477.22,476.55L482.99,477L484.81,476.89L484.85,480.66L488.17,483.62L490.64,482.4L491.24,483.4L491.24,488.3L489.54,489.27L488.2,488.32L486.98,488.76L486.77,492.47L489.54,493.61L492.49,495.66L493.42,494.86L495.31,494.9L496.3,496.95L496.49,498.92L500.22,498.89L500.31,500.26L503.69,500.84L504.29,502.4L503.22,504.58L502.33,508L502.86,508.64L506.73,509.77L505.09,513.22L504.95,514.99L506.32,517.3L506.6,519.96L505.59,522.22L504.57,519.77L502.87,520.37L502.09,519.24L500.29,519L496.94,520.51L496.42,522.03L491.63,523.22L490.19,522.36L483.71,520.01L480.61,516.94L478.21,517.18L475.79,516.77L469.94,516.98L467.91,518.66Z" fill="#dadada" stroke="#fff" stroke-width="0.5" id="JP-28" data-name="Hyogo"/>
    <path d="M438.2,549.06L441.69,550.43L441.15,551.69L441.66,554.55L440.61,556.24L436.44,556.31L434.64,558.55L430.8,558.68L426.58,558.48L425.82,560.16L423.52,560.11L422.31,562.86L420.4,566.1L419.26,566.28L418.12,569.72L418.72,571.22L416.98,573.87L414.75,574.5L410.72,574.02L410.01,575.38L410.3,577.13L412.7,579.79L412.62,581.27L408.89,582.9L407.98,586L404.95,589.02L403.19,587.31L402.85,589.12L404.27,590.72L403.9,592.44L404.85,594.78L404.82,597.25L403.97,598.15L401.64,598.59L400.73,597.12L399.03,597.7L398.67,598.97L397.05,598.87L396.6,597.48L397.46,594.25L396.94,591.24L398.02,589.4L396.27,589.02L395.29,587.98L398.6,585.35L397.73,580.55L395.15,581.53L393.53,580.01L393.6,576.56L394.95,575.39L392.68,573.43L388.44,576.15L386.4,576.77L384.47,578.86L383.19,577.82L384.2,576.38L386.37,575.13L389.44,574.32L395.21,570.8L397.15,568.01L401.2,566.11L403.86,563.97L405.38,561.39L404.93,558.2L405.76,555.02L407.36,554.81L408.11,551.37L411.39,548.25L413.46,547.94L414.22,544.63L417.42,548.88L419.71,553.56L420.64,554.24L425.65,552.82L425.43,551.97L428.81,551.2L430.8,551.25L434.31,552.24L436.51,551.17Z" fill="#dadada" stroke="#fff" stroke-width="0.5" id="JP-38" data-name="Ehime"/>
    <path d="M349.83,568.54L350.1,570.72L348.63,572.81L344.26,572.26L342.54,572.7L339.56,575.28L338.99,578.36L337.76,580.2L338.29,581.96L337.07,583.65L337.47,585.86L338.92,586.75L338.13,589.81L337.48,590.27L334.64,589.3L333.4,588.17L331.03,588.44L330.62,590.18L327.84,589.85L324.83,592.64L325.41,594.2L323.71,594.8L321.2,594.49L322.09,592.44L321.49,590.95L319.49,588.36L319.81,586.06L320.9,584.13L326.23,579.92L326.27,575.72L324.14,575.79L322.29,577.56L321.13,576.23L319.71,575.92L316.54,573.92L313.43,574.42L307.89,574.31L308.18,573.03L311.17,572.43L312.17,571.24L311.46,569.95L312.25,567.27L315.21,566.32L315.07,567.8L319.21,568.72L321.13,567.81L323.76,560.97L322.92,560.31L324.29,557.43L325.72,555.75L327.63,556.25L330.82,555.3L332.14,553.56L334.19,554.4L335.02,553.76L338.35,554.5L339.15,555.59L340.53,555.07L341.13,553.63L343.28,552.21L343.92,553.42L342.69,555.31L343,557.1L341.54,558.41L343.76,561.11L344.19,563.73L346.78,567.66L347.83,567.13Z" fill="#dadada" stroke="#fff" stroke-width="0.5" id="JP-40" data-name="Fukuoka"/>
    <path d="M388.31,540.82L385.31,540.59L384.38,537.86L384.53,536.68L382.82,535.22L382.13,529.91L381.23,528.74L381.79,527.55L384.06,525.96L384.45,522.64L385.74,520.72L384.72,520.1L386.3,518.42L387.62,517.98L389.02,515.22L394.43,516.27L396.46,515.5L399.49,515.75L402.22,513.77L405.49,513.5L405.47,511.88L403.55,511.07L405.07,508.75L407.29,508.27L410.12,503.88L411.75,502.06L414.62,503.23L416.08,502.08L417.9,503.56L420.53,502.77L421.61,503.19L425.52,503.09L426.3,504.02L428.17,506.3L427.31,508.55L427.3,511.53L430.27,515.26L429.73,517.35L430.49,520.89L430.47,523.47L432.73,526.56L432.95,529.8L432.12,532.11L430.48,532.28L430.39,533.97L428.99,534.17L425.32,533.61L426.22,531.73L421.04,533.95L419.66,533.79L419.23,535.61L416.9,536.35L414.52,535.95L412.39,536.44L410.72,537.99L408.94,537.08L407.56,540.24L405.41,540.39L402.99,541.97L401.17,541.52L398.85,543.93L399.33,546.67L396.47,547.16L396.13,546.05L398.25,544.88L398.05,542.86L399.02,542.04L399.17,540.22L397.84,536.98L398.13,535.18L395.7,533.97L392.48,535.14L389.5,538.76Z" fill="#dadada" stroke="#fff" stroke-width="0.5" id="JP-34" data-name="Hiroshima"/>
    <path d="M469.2,541.72L468.12,543.93L462.55,542.92L459.38,543.26L458,544.34L457.51,545.77L455.2,546.02L454.03,547.2L452.14,547.72L450.55,545.9L444.96,547.49L441.69,550.43L438.2,549.06L439.47,548.12L440.08,542.37L437.27,540.12L437.97,539.34L440.92,540.84L441.94,540.52L445.9,536.99L448.74,535.73L449.07,533.95L452.94,535.26L455.93,535.4L457.92,533.16L458.91,533.86L458.9,536.35L460.64,535.56L462.7,535.98L462.3,538.22L466.65,539.76Z" fill="#dadada" stroke="#fff" stroke-width="0.5" id="JP-37" data-name="Kagawa"/>
    <path d="M633.01,488.6L633.76,486.49L639.26,483.55L640.8,481.28L640.52,476.93L640.84,476.4L643.95,477.62L645.05,479.46L646.65,479.16L650.69,480.49L653.76,483.97L653.96,479.47L655.37,477.78L660.35,480.14L661.85,482.54L663.15,482.17L663.92,483.53L661.16,484.99L661.2,486.8L659.65,489.34L660.14,491.81L659.51,493.11L661.29,494.56L662.73,494.56L662.48,496.98L659.95,498.16L660.73,500.23L658.24,500.18L658.51,497.97L656.82,493.32L652.11,492.16L645.1,493.35L641.46,495.75L640.93,498.36L639.97,500.3L637.15,499.91L635.62,497.63L635.17,494.8L636.74,491.84L635.82,488.54Z" fill="#dadada" stroke="#fff" stroke-width="0.5" id="JP-14" data-name="Kanagawa"/>
    <path d="M650.34,520.44L649.08,519.7L648.71,516.34L649.14,515.42L651.42,516.22L652.38,517.94L652.08,520.74ZM664.39,590.5L662.97,588.78L664.29,587.84L666.18,589.63L667.26,591.41L666,592.31ZM664.39,590.5L666,592.31L667.26,591.41L666.18,589.63L664.29,587.84L662.97,588.78ZM646.42,531.92L646.04,535.67L644.89,535.45L645.33,533.1ZM661.85,482.54L660.35,480.14L655.37,477.78L653.96,479.47L653.76,483.97L650.69,480.49L646.65,479.16L645.05,479.46L643.95,477.62L640.84,476.4L636.93,474.24L635.71,472.43L634.96,469.57L634.01,468.2L634.36,467.37L636.92,466.29L638.23,467.29L641.31,467.83L643.22,468.87L646.38,468.91L647.89,470.76L650.32,472.17L652.64,472.11L655.6,470.72L656.11,472.34L659.5,470.91L661.24,470.62L663.38,471.28L663.72,470.13L666.25,470.93L667.98,470.8L669.97,475.01L670.62,476.44L670.32,477.74L668.79,478.81L665.15,477.92L663.85,477L663.29,479.9L663.58,481.99Z" fill="#dadada" stroke="#fff" stroke-width="0.5" id="JP-13" data-name="Tokyo"/>
    <path d="M656.07,344.36L659.44,346.14L662.63,347.28L661.9,351L663.38,353.11L666.8,354.01L668.94,356.3L667.49,359.27L664.94,360.86L662.01,360.46L661.04,361.99L661.34,364.43L660.71,365.95L661.37,367.37L660.08,368.32L658.99,374.23L660.21,376.38L662.26,376.73L663.09,378.17L660.15,381.36L659.07,384.25L656.24,386.19L656.95,389.47L656.59,392.94L652.84,392.38L651.22,392.75L650.93,394.7L649.36,394.52L646.44,395.42L644.34,395.51L643.28,397.22L644.54,398.27L643.91,402.65L642.1,405.26L644.46,407.06L645.33,408.79L644.68,411.18L645.45,413.77L644.81,418.5L642.66,417.73L642.46,416.32L639.99,413.55L639.38,415.2L637.85,416.56L634.82,417.09L635.14,421.16L633.58,420.96L633.03,422.73L629.85,425.59L628.25,427.77L626.03,426.95L624.89,427.81L623.97,426.46L624.94,424.87L624.76,422.66L622.22,421.24L620.8,419.37L620.96,416.9L620.18,415.14L618.67,414.72L613.9,416.23L612.55,419.15L610.34,420.15L610.12,422.9L607.29,422.02L605.41,423.24L603.11,423.29L601.38,425.26L599.62,423.98L600.61,421.11L599.96,420.52L596.5,419.79L594.62,419.96L594.77,422.36L593.32,424.8L590.78,426.76L588.96,421.07L588.91,418.84L587.39,418.37L586.09,416.87L596.15,413.17L599.51,410.68L601.11,410.12L602.81,408.06L604.87,408.57L607.13,408.23L610.57,405.95L615.33,401.02L619.25,399.06L623.88,391.41L625.44,390.32L627.55,385.91L628.11,382.79L629.26,379.52L630.95,377.48L638.51,372.01L642.93,370.83L646.09,368.77L649.33,365.26L651.63,361.54L652.4,358.57L652.64,351.34ZM616.4,362.04L615.31,364.38L615.66,366.37L616.96,366.93L618.95,366.02L620.36,366.92L617.79,372.4L617.67,373.53L612.57,377.69L610.54,377.79L608.92,377.12L609.96,375.14L609.54,374.16L611.84,371.69L610.84,369.72L609.38,369.74L607.9,371.04L607.87,366.96L609.99,363.56L611.29,360.6L615.32,357.7L615.52,356.27L618.2,354.34L617.39,360.33Z" fill="#dadada" stroke="#fff" stroke-width="0.5" id="JP-15" data-name="Niigata"/>
    <path d="M586.09,416.87L587.39,418.37L588.91,418.84L588.96,421.07L590.78,426.76L590.36,428.83L590.72,431.21L590.4,434.56L588.22,435.87L586.76,439.45L586.02,442.37L584.35,443.97L582.62,443.84L581.61,442.63L579.72,442.93L577.64,442.28L577.11,440.83L574.61,442.33L573.04,440.51L570.33,441.79L568.13,441.43L564.98,444.79L564.52,446.94L561.94,449.2L561.16,446.26L558.32,444.87L556.9,445.91L556.37,447.89L555.28,448.04L555.61,445.6L554.77,442.09L556.16,436.57L554.96,433.39L556.38,431.09L556.25,428.42L557.27,427.21L557.4,424.53L558.52,421.84L558.66,420.06L560.19,418.54L562.34,417.66L564.65,417.85L562.22,421.59L563.19,423.62L566.1,425.96L569.53,427.1L571.35,426.67L574.95,426.84L577.13,424.77L577.79,422.89L577.73,420.62L578.43,419.3L580.91,417.97Z" fill="#dadada" stroke="#fff" stroke-width="0.5" id="JP-16" data-name="Toyama"/>
    <path d="M640.84,476.4L640.52,476.93L640.8,481.28L639.26,483.55L633.76,486.49L633.01,488.6L631.78,489.33L624.57,490.58L623.75,488.77L621.84,488.99L620.77,486.64L618.94,488.33L619.04,491.54L618.22,492.67L618.97,497.64L617.63,498.8L615.34,498.58L614.05,497.65L612.77,492.64L611.36,491.95L609.94,492.93L608.86,492.37L608.08,489.56L608.92,487.81L608.5,485.83L609.21,483.63L607.89,478.11L607.46,477.7L606.11,474.39L607.96,472.33L606.33,470.72L608.14,467.06L609.84,467.99L613.12,462.93L615.08,463.55L616.65,466.26L617.96,465.33L621.22,465.38L621.82,467.36L624.02,467.49L626.13,465.75L628.01,466.18L628.56,467.37L630.71,467.74L632,468.73L634.01,468.2L634.96,469.57L635.71,472.43L636.93,474.24Z" fill="#dadada" stroke="#fff" stroke-width="0.5" id="JP-19" data-name="Yamanashi"/>
    <path d="M626.13,465.75L626.5,464.77L625.71,461.95L627.1,460.08L629.4,460.04L631.09,458.16L633.54,457.66L634.78,455.95L637.62,455.82L638.44,452.67L640.72,449L642.01,449.1L645.16,450.7L648.08,450.95L649.67,450.56L653.04,453.07L655.62,452.9L657.76,452.16L658.72,453.06L660.2,451.64L661.76,452.41L661.44,454.07L663.05,457.73L664.5,457.26L665.82,459.88L665.92,461.81L669.03,467.82L667.98,470.8L666.25,470.93L663.72,470.13L663.38,471.28L661.24,470.62L659.5,470.91L656.11,472.34L655.6,470.72L652.64,472.11L650.32,472.17L647.89,470.76L646.38,468.91L643.22,468.87L641.31,467.83L638.23,467.29L636.92,466.29L634.36,467.37L634.01,468.2L632,468.73L630.71,467.74L628.56,467.37L628.01,466.18Z" fill="#dadada" stroke="#fff" stroke-width="0.5" id="JP-11" data-name="Saitama"/>
    <path d="M583.43,493.74L584.97,491.54L584.49,489.15L586.1,488.62L584.84,486.35L585.98,485.5L585.98,483.79L584.93,482.79L583.32,483.45L582.37,482.34L582.5,480.31L581.76,478.92L582.58,477.07L581.12,475.77L579.64,472.43L575.32,470.77L574.98,469.04L576.09,468.56L576.73,466.58L578.87,465.94L580.26,466.42L582.74,462.55L584.59,461.12L585.32,458.19L583.13,456.8L583.15,455.29L584.55,453.96L583.92,451.97L585.85,449.09L586.68,447.13L584.35,443.97L586.02,442.37L586.76,439.45L588.22,435.87L590.4,434.56L590.72,431.21L590.36,428.83L590.78,426.76L593.32,424.8L594.77,422.36L594.62,419.96L596.5,419.79L599.96,420.52L600.61,421.11L599.62,423.98L601.38,425.26L603.11,423.29L605.41,423.24L607.29,422.02L610.12,422.9L610.34,420.15L612.55,419.15L613.9,416.23L618.67,414.72L620.18,415.14L620.96,416.9L620.8,419.37L622.22,421.24L624.76,422.66L624.94,424.87L623.97,426.46L624.89,427.81L621.61,429.45L619.4,429.66L615.12,434.56L614.02,439.51L614.15,441.92L616.46,443.3L619.29,443.33L621.41,442.4L622.95,442.86L623.48,445.01L623.01,448.33L621.44,449.03L622.59,453.44L623.16,456.86L623.25,460.8L625.71,461.95L626.5,464.77L626.13,465.75L624.02,467.49L621.82,467.36L621.22,465.38L617.96,465.33L616.65,466.26L615.08,463.55L613.12,462.93L609.84,467.99L608.14,467.06L606.33,470.72L607.96,472.33L606.11,474.39L607.46,477.7L606.37,480.75L604.67,481.7L605.32,484.71L603.92,487.41L604.91,488.65L604.65,490L601.59,491.17L598.08,493.9L595.63,495.07L594.77,496.82L592.79,497.01L591.22,497.51L589.27,496.28L587.14,496.42L584.01,497.74L582.84,495.28Z" fill="#dadada" stroke="#fff" stroke-width="0.5" id="JP-20" data-name="Nagano"/>
    <path d="M541.44,496.86L540.71,495.16L541.34,492.47L541.41,489.96L542.45,489.13L541.45,487.56L541.62,485.69L540.45,484.49L540.2,482.47L537.84,481.91L538.06,478.91L536.85,478.78L536.35,476.8L538.18,473.74L538.2,471.92L540.23,470.95L542.05,471.82L545.61,471.31L547.13,471.71L552.1,471.07L552.71,470.44L555.2,470.49L556.68,468.18L556.13,465.91L553.7,463.49L552.87,461.81L553.85,457.62L554.78,455.58L554.37,454.21L555.56,453.27L557.24,450.65L555.28,448.04L556.37,447.89L556.9,445.91L558.32,444.87L561.16,446.26L561.94,449.2L564.52,446.94L564.98,444.79L568.13,441.43L570.33,441.79L573.04,440.51L574.61,442.33L577.11,440.83L577.64,442.28L579.72,442.93L581.61,442.63L582.62,443.84L584.35,443.97L586.68,447.13L585.85,449.09L583.92,451.97L584.55,453.96L583.15,455.29L583.13,456.8L585.32,458.19L584.59,461.12L582.74,462.55L580.26,466.42L578.87,465.94L576.73,466.58L576.09,468.56L574.98,469.04L575.32,470.77L579.64,472.43L581.12,475.77L582.58,477.07L581.76,478.92L582.5,480.31L582.37,482.34L583.32,483.45L584.93,482.79L585.98,483.79L585.98,485.5L584.84,486.35L586.1,488.62L584.49,489.15L584.97,491.54L583.43,493.74L578.74,496.5L576.94,494.99L574.12,493.57L572.95,493.59L571.25,494.96L569.67,495.28L569.06,494.16L565.3,492.73L564.61,490.24L562.2,488.25L559.7,489.67L556.61,490.61L554.24,490.32L552.81,493.38L551.11,495.87L550.7,499.96L548.7,499.73L545.55,495.08Z" fill="#dadada" stroke="#fff" stroke-width="0.5" id="JP-21" data-name="Gifu"/>
    <path d="M580.62,520.97L580.32,516.64L581.4,513.99L586.23,511.48L588.61,507.89L588.66,505.91L590.87,503.36L593.04,499.35L592.79,497.01L594.77,496.82L595.63,495.07L598.08,493.9L601.59,491.17L604.65,490L604.91,488.65L603.92,487.41L605.32,484.71L604.67,481.7L606.37,480.75L607.46,477.7L607.89,478.11L609.21,483.63L608.5,485.83L608.92,487.81L608.08,489.56L608.86,492.37L609.94,492.93L611.36,491.95L612.77,492.64L614.05,497.65L615.34,498.58L617.63,498.8L618.97,497.64L618.22,492.67L619.04,491.54L618.94,488.33L620.77,486.64L621.84,488.99L623.75,488.77L624.57,490.58L631.78,489.33L633.01,488.6L635.82,488.54L636.74,491.84L635.17,494.8L635.62,497.63L637.15,499.91L639.97,500.3L638.74,502.11L638.47,504L639.65,504.47L639.4,506.94L641.32,508.5L641.1,511.33L639.55,512.82L638.12,516.04L636.15,517.51L634.94,520.29L632.63,522.88L630.29,524.27L627.93,522.61L628,521.57L626.4,518.76L627.73,516.85L626.94,512.41L628.26,510.52L627.25,507.67L628.16,505.38L631.98,505.68L632.46,504.35L629.17,501.38L624.87,500.43L619.77,501.95L618.11,504.88L618.43,506.94L616.62,508.25L612.74,510.04L611.25,512.53L611.58,514.41L610.3,516.69L607.48,518.84L606.47,521.41L606.39,524.26L602.19,522.37L599.42,521.53L595.6,521.41L592.18,522.25L587.23,521.1L584.55,520.81Z" fill="#dadada" stroke="#fff" stroke-width="0.5" id="JP-22" data-name="Shizuoka"/>
    <path d="M553.1,505.15L551.3,502.22L550.7,499.96L551.11,495.87L552.81,493.38L554.24,490.32L556.61,490.61L559.7,489.67L562.2,488.25L564.61,490.24L565.3,492.73L569.06,494.16L569.67,495.28L571.25,494.96L572.95,493.59L574.12,493.57L576.94,494.99L578.74,496.5L583.43,493.74L582.84,495.28L584.01,497.74L587.14,496.42L589.27,496.28L591.22,497.51L592.79,497.01L593.04,499.35L590.87,503.36L588.66,505.91L588.61,507.89L586.23,511.48L581.4,513.99L580.32,516.64L580.62,520.97L574.29,522.45L567.92,524.75L563.66,524.86L565.14,521.67L566.52,522.83L567.6,522.56L572.5,519.96L573.17,518.46L574.46,518.38L574.85,516.25L573.79,514.94L570.65,514.36L569.24,516.94L567.73,515.88L563.76,516.36L560.11,512.52L559.61,516.65L561.51,518.38L561.79,520.02L558.66,518.9L556.94,516.94L557.87,513.63L556.28,511.02L556.48,508.29L557.43,506.35L556.87,505.14L555.22,505.8Z" fill="#dadada" stroke="#fff" stroke-width="0.5" id="JP-23" data-name="Aichi"/>
    <path d="M526.52,563.13L524.63,562.99L520.98,559L521.11,555.43L523.16,552.22L525.4,551.5L526.94,549.42L529.94,549.89L530.36,543.64L529.67,542.37L531.02,539.83L529.73,537.68L530.23,536.43L528.82,533.54L529.76,531.77L533.8,531.17L534.52,529.41L533.99,527.62L532.77,528.11L531.91,526.23L530.39,526.74L527.98,525.04L529.4,521.08L527.9,518.16L527.07,515.91L529.56,514.88L529.44,513.92L532.81,511.67L535.29,512.91L539.63,510.8L540.01,509.08L541.48,507.03L541.55,504.46L542.22,503.07L542.87,499.32L541.35,497.86L541.44,496.86L545.55,495.08L548.7,499.73L550.7,499.96L551.3,502.22L553.1,505.15L549.98,506.81L549.32,508.71L549.8,510.79L547.99,514.1L546.22,516.29L545.18,519.32L546.54,521.09L545.83,523.58L549.73,524.72L550.25,525.97L552.62,526.86L554.62,528.37L556.82,528.42L558.18,530.92L560.01,531.21L560.15,532.59L558.25,534.44L558.8,536.93L557.95,539.31L556.15,539.81L554.15,539.4L554.13,537.95L552.64,537.44L551.51,535.48L550.29,538.1L548.25,539.48L546.54,538.29L544.66,538.55L545.18,540.3L543.77,541.16L541.86,541.15L537.31,542.9L536.28,544.79L537.71,545.81L537.06,547.09L534.81,547.06L535.11,549.19L536.45,549.87L536.13,552.12L534.91,552.29L533.45,554.39L531.71,554.73L529.81,555.9L527.85,559.4Z" fill="#dadada" stroke="#fff" stroke-width="0.5" id="JP-24" data-name="Mie"/>
    <path d="M541.44,496.86L541.35,497.86L542.87,499.32L542.22,503.07L541.55,504.46L541.48,507.03L540.01,509.08L539.63,510.8L535.29,512.91L532.81,511.67L529.44,513.92L529.56,514.88L527.07,515.91L526.14,513.55L524.28,513.23L521.36,511.42L521.79,509.42L520.15,506.61L519.6,504.42L520.89,499.83L520.01,496.78L520.72,494.09L517.76,490.67L519.38,488.17L521.25,488.92L522.99,487.33L523.4,484.85L524.24,483.24L525.67,484.68L527.37,482.87L529.77,482.62L530.41,480.63L532.46,481.23L532.72,479.84L531.76,477.13L531.76,475.3L536.35,476.8L536.85,478.78L538.06,478.91L537.84,481.91L540.2,482.47L540.45,484.49L541.62,485.69L541.45,487.56L542.45,489.13L541.41,489.96L541.34,492.47L540.71,495.16Z" fill="#dadada" stroke="#fff" stroke-width="0.5" id="JP-25" data-name="Shiga"/>
    <path d="M503.22,504.58L504.29,502.4L503.69,500.84L500.31,500.26L500.22,498.89L496.49,498.92L496.3,496.95L495.31,494.9L493.42,494.86L492.49,495.66L489.54,493.61L486.77,492.47L486.98,488.76L488.2,488.32L489.54,489.27L491.24,488.3L491.24,483.4L490.64,482.4L488.17,483.62L484.85,480.66L484.81,476.89L487.08,477.4L489.02,475.39L490.53,475.5L494.09,472.99L497.61,471.88L499.6,473.15L500.5,475.98L499.35,476.54L498.23,480.39L498.42,482.37L500.09,483.33L501.69,483.34L501.34,485.12L504.2,484.02L501.93,482.98L503.43,481.28L506.86,481.48L506.1,483.16L507.07,483.94L506.53,485.81L508.96,488.08L509.21,489.7L512.42,490.05L515.22,491.16L517.76,490.67L520.72,494.09L520.01,496.78L520.89,499.83L519.6,504.42L520.15,506.61L521.79,509.42L521.36,511.42L524.28,513.23L526.14,513.55L527.07,515.91L527.9,518.16L527.28,519.56L525.29,518.16L523.45,518.14L522.22,519.57L520.87,519.73L517.31,518.76L516.33,516.48L516.87,515.32L514.96,513.16L514.39,511.19L510.7,507.85L509.45,510.39L507.33,507.43L505.77,506.27L503.57,505.95Z" fill="#dadada" stroke="#fff" stroke-width="0.5" id="JP-26" data-name="Kyoto"/>
    <path d="M505.59,522.22L506.6,519.96L506.32,517.3L504.95,514.99L505.09,513.22L506.73,509.77L502.86,508.64L502.33,508L503.22,504.58L503.57,505.95L505.77,506.27L507.33,507.43L509.45,510.39L510.7,507.85L514.39,511.19L514.96,513.16L516.87,515.32L516.33,516.48L514.46,520.85L513.5,524.13L514.59,525.11L513.54,526.78L514.52,529.13L514.32,533.36L513.18,534.04L510.77,534.39L508.55,535.89L505.54,535.62L500.86,537.12L498.69,537.17L496.4,538.64L493.68,538.92L492.93,537.1L497.7,535.52L501.12,532.39L503.67,528.76L505.06,527.67L504.5,524.4Z" fill="#dadada" stroke="#fff" stroke-width="0.5" id="JP-27" data-name="Osaka"/>
    <path d="M527.9,518.16L529.4,521.08L527.98,525.04L530.39,526.74L531.91,526.23L532.77,528.11L533.99,527.62L534.52,529.41L533.8,531.17L529.76,531.77L528.82,533.54L530.23,536.43L529.73,537.68L531.02,539.83L529.67,542.37L530.36,543.64L529.94,549.89L526.94,549.42L525.4,551.5L523.16,552.22L521.11,555.43L517.38,556.06L516.16,555.3L514.21,555.42L512.79,556.56L511.69,555.24L513.02,551.83L511.41,550.49L511.53,549.51L509.4,547.72L509.64,546.71L512.42,544.01L512.86,541.99L514.12,541.1L515.62,541.79L515.95,539.46L514.29,538.53L513.93,535.32L513.18,534.04L514.32,533.36L514.52,529.13L513.54,526.78L514.59,525.11L513.5,524.13L514.46,520.85L516.33,516.48L517.31,518.76L520.87,519.73L522.22,519.57L523.45,518.14L525.29,518.16L527.28,519.56Z" fill="#dadada" stroke="#fff" stroke-width="0.5" id="JP-29" data-name="Nara"/>
    <path d="M492.93,537.1L493.68,538.92L496.4,538.64L498.69,537.17L500.86,537.12L505.54,535.62L508.55,535.89L510.77,534.39L513.18,534.04L513.93,535.32L514.29,538.53L515.95,539.46L515.62,541.79L514.12,541.1L512.86,541.99L512.42,544.01L509.64,546.71L509.4,547.72L511.53,549.51L511.41,550.49L513.02,551.83L511.69,555.24L512.79,556.56L514.21,555.42L516.16,555.3L517.38,556.06L521.11,555.43L520.98,559L524.63,562.99L526.52,563.13L525.73,565.75L524.74,566.12L523.42,568.18L524.76,568.71L522.94,570.72L517.59,573.68L516.12,573.89L512.61,572.48L508.26,571.79L504.51,569.53L503.75,568.14L504.03,566.67L502.18,565.96L504.02,563.95L501.28,561.19L496.42,558.93L495.16,556.3L493.73,555.58L491.68,556.19L492.64,551.28L494.98,550.64L495.89,549.46L494.53,548.05L492.45,547.59L494.13,544.84L495.75,544.97L496.07,542.93L494.67,542.57L493.87,540.29L492.23,538.66Z" fill="#dadada" stroke="#fff" stroke-width="0.5" id="JP-30" data-name="Wakayama"/>
    <path d="M428.31,485.63L431.01,486.17L434.59,483.33L437.93,482.63L440.61,483.7L443.95,484.02L450.21,483.6L451.46,482.91L454.06,483.23L457.49,482.85L462.65,481.48L463.7,480.04L466.46,478.97L467.74,479.93L468.61,482.33L469.15,486.76L470.51,487.39L470.49,489.83L471.64,490.64L471.91,494.17L468.86,496.31L467.79,495.83L467.22,495.4L464.63,497.56L462.73,497.28L460.13,498.37L458.3,494.8L456.61,492.93L454.87,493.24L453.05,492.54L453.33,490.87L450.54,491.67L450.49,492.57L448.34,493.49L446.74,495.44L445.78,493.74L443.79,492.36L441.42,492.33L438.27,491.16L436.82,495.69L435.05,496.16L435.04,497.99L432.8,498.91L430.85,499.01L431.47,501.22L428.11,502.4L427.06,502.26L426.3,504.02L425.52,503.09L421.61,503.19L421.91,500.31L423.56,499.01L423.03,496.16L427.74,494.38L427.23,491.34L428.02,490.18Z" fill="#dadada" stroke="#fff" stroke-width="0.5" id="JP-31" data-name="Tottori"/>
    <path d="M339.21,391.05L339.97,393.51L338.55,395.15L336.16,394.15L335.53,392.35ZM421.31,457.61L419.88,458.91L418.69,456.91L420.45,456.04ZM428.31,485.63L428.02,490.18L427.23,491.34L427.74,494.38L423.03,496.16L423.56,499.01L421.91,500.31L421.61,503.19L420.53,502.77L417.9,503.56L416.08,502.08L414.62,503.23L411.75,502.06L410.12,503.88L407.29,508.27L405.07,508.75L403.55,511.07L405.47,511.88L405.49,513.5L402.22,513.77L399.49,515.75L396.46,515.5L394.43,516.27L389.02,515.22L387.62,517.98L386.3,518.42L384.72,520.1L385.74,520.72L384.45,522.64L384.06,525.96L381.79,527.55L381.23,528.74L382.13,529.91L380.63,530.75L379.46,532.67L380.26,534.33L378.18,537.29L376.89,536.12L375.16,537.42L373.2,537.6L371.59,536L371.29,533.99L372.28,531.7L368.81,531.77L367.68,528.7L368.9,527.51L369.47,524.15L368.65,523.26L368.19,520.93L370.33,520.98L373.13,520.14L375.6,517.31L377.71,515.79L381.85,511.42L382.85,509.56L386.41,506.96L388.17,505.11L391.06,503.94L392.07,501.92L393.88,500.73L394.96,498.23L399.63,494.87L402.27,493.87L404.07,491.46L404.32,488.46L402.71,487.03L409.48,484.2L413.43,483.25L415.17,482.11L417.35,482.33L418.1,480.54L419.83,479.35L421.52,481.33L424.27,480.4L427.03,480.56L425.27,482.51L426.19,484.36ZM424.68,452.96L423.06,451.91L422.96,448.45L424.57,446.6L426.58,446.03L428.06,446.64L430.46,449.37L429.89,452.16L428.86,453.78L425.04,454.01ZM419.19,455.04L417.8,456.67L417.99,458.79L415.47,457.7L416.83,456.17Z" fill="#dadada" stroke="#fff" stroke-width="0.5" id="JP-32" data-name="Shimane"/>
    <path d="M463.81,530.97L461.8,530.51L460.68,529.54L458.51,530.47L458.96,528.41L464.96,525.9L466.12,527.41L465.9,529.76ZM432.95,529.8L432.73,526.56L430.47,523.47L430.49,520.89L429.73,517.35L430.27,515.26L427.3,511.53L427.31,508.55L428.17,506.3L426.3,504.02L427.06,502.26L428.11,502.4L431.47,501.22L430.85,499.01L432.8,498.91L435.04,497.99L435.05,496.16L436.82,495.69L438.27,491.16L441.42,492.33L443.79,492.36L445.78,493.74L446.74,495.44L448.34,493.49L450.49,492.57L450.54,491.67L453.33,490.87L453.05,492.54L454.87,493.24L456.61,492.93L458.3,494.8L460.13,498.37L462.73,497.28L464.63,497.56L467.22,495.4L467.79,495.83L467.06,497.77L468,500L466.3,500.35L465.85,502.39L464.76,502.86L464.64,504.59L462.37,509L463.63,510.59L462.32,513.02L464.65,515.7L465.66,518.26L463.11,518.34L459.84,522.03L459.15,523.7L457.33,524.8L454.96,524.9L451.43,527.71L450.02,530.97L446.91,529.9L445.94,530.53L442.52,529.88L441.38,528.42L440.06,528.54L438.35,529.95L434.22,531.37Z" fill="#dadada" stroke="#fff" stroke-width="0.5" id="JP-33" data-name="Okayama"/>
    <path d="M389.92,556.59L387.05,556.6L386.1,554.08L388.3,552.31L390.82,554.43L392.99,555.41L393.36,556.97ZM368.19,520.93L368.65,523.26L369.47,524.15L368.9,527.51L367.68,528.7L368.81,531.77L372.28,531.7L371.29,533.99L371.59,536L373.2,537.6L375.16,537.42L376.89,536.12L378.18,537.29L380.26,534.33L379.46,532.67L380.63,530.75L382.13,529.91L382.82,535.22L384.53,536.68L384.38,537.86L385.31,540.59L388.31,540.82L388.91,543.58L387.09,545.28L387.63,548.68L387.54,550.79L386.47,552.59L384.45,552.81L384.46,555.84L381.37,554.91L380.69,555.22L373.98,550.07L373.05,552.21L371.36,551.84L373.44,549.64L370.15,548.17L364.14,550.13L362.87,551L360.69,549.07L360.04,550.72L357.16,549.92L356.14,552.38L352.96,554.29L348.91,552.84L349.06,551.37L346.12,549.38L344.25,549.15L342.99,551.35L340.81,553.17L340.08,551.95L340.01,548.81L338.04,545.98L339.66,544.6L340.69,542.52L340.25,540.27L338.82,537.79L339.54,535.23L341.88,535.14L343.89,533.56L343.31,532.5L346.82,532.35L348.85,534.42L351.01,534.47L354.35,533.93L357.38,532.45L360.07,529.32L360.22,527.04L361.51,527.3L363.45,525.19L365.52,521.31L367.33,521.86Z" fill="#dadada" stroke="#fff" stroke-width="0.5" id="JP-35" data-name="Yamaguchi"/>
    <path d="M464.12,570.78L460.2,570.37L458.75,568.14L459.46,565.2L457.56,564.42L455.37,564.66L455.19,560.93L454.26,559.43L451.4,558.48L449.82,560.18L448.36,559.57L447.16,557.9L443.79,558.22L441.3,557.24L440.61,556.24L441.66,554.55L441.15,551.69L441.69,550.43L444.96,547.49L450.55,545.9L452.14,547.72L454.03,547.2L455.2,546.02L457.51,545.77L458,544.34L459.38,543.26L462.55,542.92L468.12,543.93L469.2,541.72L474.43,540.25L474.43,542L475.83,542.91L474.48,548.44L474.65,550.48L478.46,553.07L478.53,555.03L476.13,556.79L480.4,558.25L476.51,560.15L474,561.73L473.68,562.68L469.14,565.68L467.71,565.86L466.77,567.05L466.24,569.38L464.58,569.3Z" fill="#dadada" stroke="#fff" stroke-width="0.5" id="JP-36" data-name="Tokushima"/>
    <path d="M403.97,598.15L404.82,597.25L404.85,594.78L403.9,592.44L404.27,590.72L402.85,589.12L403.19,587.31L404.95,589.02L407.98,586L408.89,582.9L412.62,581.27L412.7,579.79L410.3,577.13L410.01,575.38L410.72,574.02L414.75,574.5L416.98,573.87L418.72,571.22L418.12,569.72L419.26,566.28L420.4,566.1L422.31,562.86L423.52,560.11L425.82,560.16L426.58,558.48L430.8,558.68L434.64,558.55L436.44,556.31L440.61,556.24L441.3,557.24L443.79,558.22L447.16,557.9L448.36,559.57L449.82,560.18L451.4,558.48L454.26,559.43L455.19,560.93L455.37,564.66L457.56,564.42L459.46,565.2L458.75,568.14L460.2,570.37L464.12,570.78L460.64,577.46L459.73,583.46L454.87,578.63L454.07,576.71L451.46,575.43L450.51,573.42L448.83,572.83L444.52,572.3L443.68,571.28L441.35,571.4L437.84,572.21L437.37,573.09L433.06,575.28L433.09,576.48L429.94,577.19L425.84,578.72L426.01,583.53L425.74,584.93L422.57,588.19L421.58,590.51L419.89,592.64L416.88,593.89L416.06,596.86L416.7,599.95L414.58,600.84L414.55,602.89L416.46,604.06L417,605.16L416.49,606.93L413.36,604.12L411.29,603.9L409.04,605.84L405.74,603.56L404.74,604.32L402.63,603.63L405.96,598.73Z" fill="#dadada" stroke="#fff" stroke-width="0.5" id="JP-39" data-name="Kochi"/>
    <path d="M296.39,563.63L295.26,563.58L294.53,561.52L293.46,561.07L295.7,556.91L298.24,557.85L297.76,559.43L299.13,561.3L298.81,562.31L296.79,562.4ZM307.89,574.31L313.43,574.42L316.54,573.92L319.71,575.92L321.13,576.23L322.29,577.56L324.14,575.79L326.27,575.72L326.23,579.92L320.9,584.13L319.81,586.06L319.49,588.36L317.06,588.34L314.7,587.53L312.03,589.85L311.87,591.59L312.76,592.54L314.56,596.81L313.99,596.74L308.78,595.47L305.9,592.39L303.77,590.96L305.02,589.32L304.36,587.7L302.45,587.87L299.88,586.8L299.83,584.46L297.88,581.88L298.99,580.03L300.56,580.13L301.69,578.45L301.64,577.2L298.56,575.03L300.24,572.08L302.69,570.72L305.39,572.48L304.21,573.85L305.34,574.86L307.46,575.21Z" fill="#dadada" stroke="#fff" stroke-width="0.5" id="JP-41" data-name="Saga"/>
    <path d="M264.13,606.05L264.39,608.28L265.99,610.43L263.3,610.62L261.51,610.26L260.24,611.89L257.27,612.62L255.21,611.67L257.89,609.94L257.08,608.7L256.77,605.15L257.65,604.14L259.24,605.66L262.95,604.44ZM298.99,580.03L297.88,581.88L299.83,584.46L299.88,586.8L302.45,587.87L304.36,587.7L305.02,589.32L303.77,590.96L305.9,592.39L308.78,595.47L313.99,596.74L313.9,597.86L311.13,599.82L312.73,601.62L316.83,600.07L318.7,600.76L320.34,603.95L320.35,606L319.21,607.49L319.26,608.99L316.27,610.11L315.04,611.69L312.73,611.3L311.24,610.39L311.39,608.77L314.01,606.68L313.13,603.76L309.67,603.71L307.66,605.03L304.82,604.86L304.47,606.71L302.73,609.49L298.49,612.04L300.29,607.51L300.24,605.91L298.92,605.03L298.3,602.66L296.94,603.24L295.27,601.62L294.15,598.34L292.99,596.8L294.13,591.42L295.55,590.79L297.9,593.84L300.04,595.54L299.8,598.04L298.79,600.59L300.97,602.12L302.77,600.01L305.79,601.93L305.76,600.52L304.01,598.09L304.53,594.12L301.43,591.85L298.53,592.07L296.98,591.34L296.58,587.91L293.19,587.48L292.54,586.21L290.16,585.31L290.4,583.64L291.48,582.86L291,580.22L291.75,578.09L292.83,578.95L294.38,578.8L296.13,579.58L298.89,578.7ZM282.02,536.36L281.63,535.56L278.5,535.29L279.73,533.82L279.97,530.11L281.94,526.48L280.44,525.6L281.68,522.1L284.36,521.98L285.09,520.19L286.4,519.53L288.18,521.2L287.17,523.93L287.3,526.24L285.89,528.48L283.48,530.77L284.55,532.59L284.07,534.68L284.82,536.03L284.34,537.76L283.1,538.93L281.96,538.69L280.27,545.14L277.72,547.18L276.02,546.35L277.01,538.73ZM275.12,581.85L274.18,584.08L272.47,582.93ZM264.76,601.58L266.31,602.56L265.52,605.09L264.12,604.18L263.97,601.8ZM289.1,578.18L290.79,579.16L286.91,585.43L284.36,587.2L283.84,584.98L285.55,584.02L284.71,582.91L286.14,580.57ZM273.74,592.65L273.17,595.54L276.01,594.39L276.56,596.04L273.48,598.48L273.63,600.86L272.35,600.76L271.23,597.17L271.46,593.57ZM270.21,600.86L268.99,600.15L269.1,598.34L271.14,599.26ZM267.72,603.49L265.83,600.13L268.06,600.3L268.63,601.23Z" fill="#dadada" stroke="#fff" stroke-width="0.5" id="JP-42" data-name="Nagasaki"/>
    <path d="M323,614.12L322.02,614.63L320.93,612.71L322.71,611.06L323.34,612.7ZM333.26,633.91L332.32,633.74L329.41,631.55L325.97,632.41L324.42,632.38L323.3,633.42L321.36,633.13L319.77,631.49L320.1,629.48L322.04,627.38L324.35,622.46L327.43,619.34L327.22,617.56L327.87,616.3L327.19,614.74L328.45,612.85L330.45,610.99L323.4,611.43L323.41,610.72L328.47,607.3L328.85,603.82L327.26,601.64L325.82,601.32L325.58,599.92L322.86,598.66L322.26,595.4L321.2,594.49L323.71,594.8L325.41,594.2L324.83,592.64L327.84,589.85L330.62,590.18L331.03,588.44L333.4,588.17L334.64,589.3L337.48,590.27L339.09,591.13L340.21,592.6L342.83,593.89L344.07,591.13L342.52,588.88L342.76,587.49L344.65,586.44L347.27,586.92L349.2,588.95L349.56,591.13L351.15,592.59L352.24,595.61L352.64,599.84L355.25,602.21L352.91,602.51L351.87,604.37L351.81,606.05L350.01,607.25L349.63,608.99L347.87,610L347.4,612.62L345.21,612.87L343.48,617.11L343.95,619.22L345.55,620.67L345.9,622.8L347.32,624.07L345.54,627.88L346.89,629.65L347.2,631.36L345.57,631.55L343.5,630.88L342.2,633.09L339.89,632.68L338.03,634.01ZM312.48,628.96L314.22,631.48L313.37,632.01L312.5,634.32L310.61,632.78L310.12,630.72L310.38,629.1ZM322.07,615.67L322.96,615.54L322.03,619.5L320.47,621.63L319.44,621.79L317.22,620.82L313.77,620.71L314.79,622.28L314,624.13L310.56,626.66L310.14,628.26L308.62,629.08L307.39,631.71L306.17,629.65L306.65,628.04L305.3,627.64L306.5,625L305.64,622.56L306.76,619.62L307.85,618.06L308.19,615.95L312.45,614.32L313.82,614.98L313.55,616.7L314.02,618.61L317.03,617.11L318.15,615.76L319.76,615.26Z" fill="#dadada" stroke="#fff" stroke-width="0.5" id="JP-43" data-name="Kumamoto"/>
    <path d="M349.17,661.51L350.54,658.93L350.65,656.22L350.09,654.49L348.05,654.38L346.12,652.97L345.19,654.05L344.17,652.23L343.87,649.3L342.74,647.81L340.74,647.57L338.98,646.71L339.44,643.03L337.88,640.98L336.32,640.7L335.09,637.69L332.36,635.79L333.26,633.91L338.03,634.01L339.89,632.68L342.2,633.09L343.5,630.88L345.57,631.55L347.2,631.36L346.89,629.65L345.54,627.88L347.32,624.07L345.9,622.8L345.55,620.67L343.95,619.22L343.48,617.11L345.21,612.87L347.4,612.62L347.87,610L349.63,608.99L350.01,607.25L351.81,606.05L351.87,604.37L352.91,602.51L355.25,602.21L356.14,603.29L358.45,603.07L360.61,602.01L362.15,603.6L362.17,605.04L363.85,605.59L364.81,604.78L368.96,604.81L370.14,602.35L371.64,602.08L374.25,602.86L374.19,606.15L375.24,606.17L374.8,607.14L371.9,608.96L370.8,612.08L368.8,613.08L368.05,614.7L369.82,616.86L367.29,619.23L365.59,623.66L364.5,625.73L362.77,632.91L359.76,642.54L359.47,645.24L361,647.42L360.07,649.66L360.08,654.1L358.62,654.95L356.95,658.85L357.39,660.34L356.38,660.97L356.74,662.76L355.29,664.12L352.39,664.8L351.12,661.99Z" fill="#dadada" stroke="#fff" stroke-width="0.5" id="JP-45" data-name="Miyazaki"/>
    <path d="M337.48,590.27L338.13,589.81L338.92,586.75L337.47,585.86L337.07,583.65L338.29,581.96L337.76,580.2L338.99,578.36L339.56,575.28L342.54,572.7L344.26,572.26L348.63,572.81L350.1,570.72L349.83,568.54L350.42,567.73L353.72,569.44L356.82,569.39L358.66,568.83L360.52,567.15L361.43,565.35L364.56,564.42L367.53,565.92L369.86,569.05L370.37,571.06L370.2,574.4L368.87,576.95L366.33,576.2L366.7,578.38L361.49,578.97L361.28,580.29L361.93,583.09L364.71,584.04L368.2,582.53L370.68,584.33L372.64,584.19L376.17,583.07L374.65,585.88L373.65,586.85L372.71,589.21L374.02,589.78L374.7,591.45L377.01,591.87L375.72,595.11L377.47,596.84L378.81,596.35L378.85,600.99L380.07,602.29L377.42,604.19L375.7,603.32L375.24,606.17L374.19,606.15L374.25,602.86L371.64,602.08L370.14,602.35L368.96,604.81L364.81,604.78L363.85,605.59L362.17,605.04L362.15,603.6L360.61,602.01L358.45,603.07L356.14,603.29L355.25,602.21L352.64,599.84L352.24,595.61L351.15,592.59L349.56,591.13L349.2,588.95L347.27,586.92L344.65,586.44L342.76,587.49L342.52,588.88L344.07,591.13L342.83,593.89L340.21,592.6L339.09,591.13Z" fill="#dadada" stroke="#fff" stroke-width="0.5" id="JP-44" data-name="Oita"/>
    <path d="M341.23,699.03L340.9,695.18L343.45,691.08L343.25,690.25L345.21,687.87L346.13,690.55L346.03,694.01L344.95,696.07L345.23,697.51L344.16,700.06L343.14,700.36L341.62,704.19L342.48,706.68L341.85,707.76L340.35,707.74L338.49,709.01L337.93,707.93L338.49,703.79ZM319.77,631.49L321.36,633.13L323.3,633.42L324.42,632.38L325.97,632.41L329.41,631.55L332.32,633.74L333.26,633.91L332.36,635.79L335.09,637.69L336.32,640.7L337.88,640.98L339.44,643.03L338.98,646.71L340.74,647.57L342.74,647.81L343.87,649.3L344.17,652.23L345.19,654.05L346.12,652.97L348.05,654.38L350.09,654.49L350.65,656.22L350.54,658.93L349.17,661.51L347,660.73L344.2,663.39L343.72,665.71L347,666.86L345.83,668.65L345.51,671.4L343.63,671.46L343.24,673.04L341.77,675.21L338.49,677.04L336.3,677.28L331.91,680.14L330.45,678.07L333.79,675.47L334.61,673.39L334.05,672.5L335.45,670.39L335.95,666.78L334.2,662.93L332.1,661.29L332.31,657.67L329.81,657.73L328.2,656.2L329.46,654.5L331.4,654.13L332.78,655.28L332.58,656.83L334.54,657.01L336.65,653.17L335.73,651.11L330.77,649.65L329.21,650.9L328.79,653.12L327.08,655.61L327.37,656.56L325.31,661.14L325.8,663.6L327.28,667.45L329.27,669.28L330.93,669.71L329.97,672.99L328.06,674.38L326.91,673.47L325.05,673.48L325.16,671.95L323.38,670.36L319.44,670.39L317.85,669.7L314.39,670.46L313.9,665.77L312.93,665.45L311.35,663.47L312.83,663.14L314.75,664.09L317.22,661.72L318.79,657.52L318.38,653.13L316.94,651.31L313.83,648.72L312.65,647.18L314.74,642.14L314.41,640.11L313.06,637.5L314.11,635.49L312.77,634.4L314.72,632.6L316.95,633.47L318.95,633.29ZM300.44,645.19L300.49,643.25L302.19,644.32L304,644.66L303.95,645.78L302.26,646.34ZM314.97,703.72L316.25,704.64L314.24,705.73L312.74,704.24L313.14,703.05ZM296.43,653.59L294.25,653.93L295.76,650.11L297.87,649.49L298.08,650.55L296.47,652.42ZM324.79,704.02L329.87,706.51L331.12,707.68L330.4,710.96L327.97,713.43L325.68,713.99L322.54,713.46L320.8,709.94L320.39,706.93L322.13,706.77Z" fill="#dadada" stroke="#fff" stroke-width="0.5" id="JP-46" data-name="Kagoshima"/>
    <path d="M226.52,870.56L228.07,869.04L229.16,868.92L231.99,867.38L232.67,865.57L229.46,864.68L228.72,861.5L231.86,860.57L233.28,861.15L233.59,863.72L235.3,863.51L237.05,862.4L241.81,856.85L242.89,853.66L244.59,854.99L245.32,858.8L242.05,863.69L238.79,863.75L238.93,866.32L236.79,867.66L234.28,868.61L231.48,871.62L228.54,870.79L227,872.23L228.84,873.92L228.57,875.78L227.33,876.04L226.42,877.27L224.88,881.25L227.15,882.68L225.7,883.98L224.09,884.63L223.25,885.8L220.76,886.04L220.03,881.35L222.64,878.29L224.43,877.38L222.89,872.98L224.97,871.25ZM84.71,955.83L84.29,957.58L83.35,957.87L81.91,960L80.88,959.32L75.23,958.9L74.52,957.89L76.06,956.18L77.78,956.71L77.51,954.4L78.53,953.38L82.32,954.02ZM132.75,939.81L132.88,938.14L134.87,936.38L135.84,938.16L139.39,939.63L140.12,940.88L134.81,941.64ZM268.87,813.23L268.78,814.85L271.33,817.13L269.54,820.96L267.62,821.32L265.54,818.76L266.5,817.09L265.49,814.15L266.27,811.68L268.94,811.75ZM93.1,952.17L94.97,951.28L97.26,947.67L98.04,948.35L97.26,950.63L96.11,951.65L96.42,953.69L95.76,956.31L92.62,957L91.95,954.74ZM291.68,791.9L289.64,794.57L286.71,794.97L286.19,797.07L286.9,798.48L283.39,800.99L282.66,801.85L280.75,801.12L279.96,798.56L277.06,797.83L274.87,796.77L278.55,795.59L277.84,794.73L279.64,793.68L281.04,793.61L282.38,791.96L283.37,792.57L284.39,791.24L286.32,791.47L286.59,790.28L288.47,790.65L289.81,787.99L292.69,787.41L293.25,790.02L294.58,788.15L293.51,786.42L295.17,785.25L295.38,786.95L296.26,787.57L296.14,789.44L294.26,790.8L293,790.36ZM307.79,792.01L305.56,795.5L304.48,795.91L303.34,794.33L304.79,793.72L307.02,791.58ZM188.28,876.16L186.14,874.3L188.83,873.6L190.31,875.33ZM278.02,800.7L279.81,800.33L280.44,802.09L282.91,803.01L282.39,804.09L278.14,803.17ZM256.33,833.58L253.75,835.03L252.38,833.37L252.84,831.88L255.13,832.19L258.08,831.51ZM128.59,937.36L129.55,935.44L131.23,936.18L131.67,937.49L129.43,937.99Z" fill="#dadada" stroke="#fff" stroke-width="0.5" id="JP-47" data-name="Okinawa"/>
</svg>