<?xml version="1.0" encoding="UTF-8"?>
<svg xmlns="http://www.w3.org/2000/svg" viewBox="-2 87.84 964 784.32">
  <!-- Generated from amCharts geodata | Mercator projection -->
    <path d="M374.78,729.61L385.29,729.81L388.37,733.44L389.02,745.12L407.23,746.25L410.03,752.86L415.9,756.18L416.73,767.61L421.86,783.31L417.44,782.32L407.12,775.05L404.83,770.39L397.31,769.39L395.24,781.78L388.84,786.28L387.15,798.62L387.97,804.99L383.2,811.26L382.92,819.51L385.39,826.29L378.55,822.14L371.98,821.1L362.9,822.85L357.94,819.23L359.92,812.98L367.42,801.91L365.8,796L369.8,782.66L378.1,767.69L377.14,745.35L375.19,741.71L365.69,737.2Z" fill="#dadada" stroke="#fff" stroke-width="0.5" id="NG-AB" data-name="Abia"/>
    <path d="M738.91,614.94L733.43,598.9L734.19,591.76L721.26,576.67L715.33,575.15L708.16,582.95L700.91,573.65L697.64,564.89L704.05,556.62L715.52,545.31L726.68,530.33L734.59,523.53L734.66,513.32L743.7,493.72L740.74,486.39L731.96,480.64L732.11,472.82L725.33,460.04L716.62,456.97L707.7,441.23L720.06,438.19L739.63,425.62L741.27,404.47L749.46,405.74L758.85,403.77L776.12,383.51L787.5,381.75L795.12,378.85L799.34,371.98L806.66,370.32L815.49,360.79L826.5,361.81L843.42,372.05L850.57,370.44L852.48,360.36L858.7,342.9L859.06,332.48L868.69,334.37L880.94,331.73L880.63,335.97L874.55,345.15L867.95,360.04L866.37,383.13L858.44,397.67L850.85,399.18L845.45,406.84L847.64,410.22L843.81,416.42L849.45,424.59L846.65,428.62L845.44,440.24L843.15,445.24L829.36,447.86L814,458.02L817.81,460.66L817.93,470.38L815.88,486.67L808.84,495.91L810.33,506.26L802.67,511L802.48,514.55L791.65,521.91L784.04,519.78L778.02,531.38L764.58,535.43L763.71,540.67L766.32,554.96L762.11,562.92L763.19,571.03L753.34,583.31L747.05,598.26L748.78,608.59Z" fill="#dadada" stroke="#fff" stroke-width="0.5" id="NG-AD" data-name="Adamawa"/>
    <path d="M385.39,826.29L382.92,819.51L383.2,811.26L387.97,804.99L387.15,798.62L388.84,786.28L395.24,781.78L397.31,769.39L404.83,770.39L407.12,775.05L417.44,782.32L417.8,790.89L423.96,790.17L430.37,793.65L430.09,804.31L436.6,817.37L451.1,831.62L451.88,840.25L447.9,848.99L433.73,848.07L419.88,848.79L404.31,850.97L394.42,853.94L388.33,848.07L388.73,833.83Z" fill="#dadada" stroke="#fff" stroke-width="0.5" id="NG-AK" data-name="Akwa Ibom"/>
    <path d="M338.16,668.8L343.79,673.86L354.42,678.01L353.26,683.53L347.71,689.64L346.67,695.03L352.16,697.24L360,711.9L365.67,727.04L374.78,729.61L365.69,737.2L358.81,739.04L351.86,737.42L341.41,740.28L337.15,750.9L327.85,748.75L319.19,755.86L314.66,753.91L318.44,747.31L324.39,731.86L326.54,719.31L318.93,689.21L318.84,688.83L325.64,688.69L329.86,684.26L331.54,675.36Z" fill="#dadada" stroke="#fff" stroke-width="0.5" id="NG-AN" data-name="Anambra"/>
    <path d="M634.4,204L644.39,212.04L646.62,227.42L650.7,233.48L652.89,254.3L663.67,281.51L660.75,300.25L666.77,302.73L662.24,307.92L654.44,312.19L646.6,320.27L637.9,325.82L633.27,341.91L628.35,350.3L637.89,354.2L641.62,367.21L650.93,370.62L653.61,377.03L652.43,394.27L644.82,396.28L643.56,400.87L649.1,406.58L664.15,417.62L666.53,430.61L671.13,441.68L657.65,440.22L643.97,446.53L636.41,445.51L630.48,448.96L614.28,439.25L599.97,433.08L574.87,420.86L570.57,425.06L574.36,434.76L568.21,436.46L564.48,443.23L558.81,445.07L545.84,445.83L532.57,443.56L518.55,428.25L521.63,422.44L521.59,413.19L516.65,406.36L502.48,409.21L502.52,393.1L498.15,381.45L488.46,380.83L481.24,374.08L484.97,363.47L491.31,352.41L485.22,342.01L484.13,330.47L486.77,319.98L494.21,318.96L501.18,309.43L511.38,300.54L516.51,301.66L523.63,298.83L542.28,303.16L549.57,302.21L551.89,306.97L571.97,305.84L576.11,315L575.04,325.21L577.83,329.64L585.19,331.19L592.42,329.38L600.03,332.19L601.05,324.63L615.76,316.29L615.84,310.84L588.74,307.46L584.86,305.06L578.03,295.41L576.06,288.81L568.86,286.33L572.11,279.82L569.55,268.46L555.8,268.74L560.6,257.3L568.55,256.7L575.63,252.73L599.34,243.4L598.57,238.02L607.24,211.25L617.6,208.01L620.11,213.01Z" fill="#dadada" stroke="#fff" stroke-width="0.5" id="NG-BA" data-name="Bauchi"/>
    <path d="M398.88,568.46L421.66,573.31L439.28,581.59L447.44,582.7L458.63,589.24L460.21,586.05L454.13,570.9L456.96,562.07L462.06,559.21L470.65,559.19L483.68,564.01L498.85,566.57L503.98,565.38L519.21,576.99L516.78,585.51L524.68,582.08L534.34,580.84L554.57,583.76L566.95,597.48L577.76,607.34L579.47,613.62L575.65,625.48L576.03,633.17L566.39,641.79L562.12,649.8L559.39,664.76L559.72,678.51L557.26,689.16L549.06,695.31L543.16,695.03L536.02,684.38L528.87,676.93L522.95,675.71L510.59,678.63L503.36,676.89L503.49,668.56L492.33,661.56L485.32,659.36L474.9,662.47L475.9,668.32L467.81,671.9L457.7,671.43L449.03,676.9L445.74,668.4L437.76,670.19L432.98,675.15L424.71,675.34L423.1,686.05L417.71,688.52L411.89,680.55L414.84,672.2L413.68,664.89L406.24,660.16L400.68,663.85L388.54,653.92L385.17,644.76L396.23,650.39L397.9,642.76L410.49,634.66L414.28,615.75L408.37,614.79L406.77,607.6L406.02,589.77L399.16,579.78Z" fill="#dadada" stroke="#fff" stroke-width="0.5" id="NG-BE" data-name="Benue"/>
    <path d="M880.94,331.73L868.69,334.37L859.06,332.48L858.7,342.9L852.48,360.36L850.57,370.44L843.42,372.05L826.5,361.81L815.49,360.79L806.66,370.32L799.34,371.98L795.12,378.85L787.5,381.75L776.12,383.51L758.85,403.77L749.46,405.74L741.27,404.47L733.87,399.53L729.83,391.51L722.52,388.47L715.97,377.85L722.65,368.02L721.71,359.8L730.04,353.02L729.69,342.11L736.13,332.32L750.62,328.4L761.21,319.64L760.5,306.56L769.66,290.81L775.52,285.05L775.72,277.97L771.67,273.11L764.31,270.39L770.41,258.51L768.22,248.82L771.67,223.09L770.22,207.72L779.35,199.51L784.79,190.03L784.16,185.16L776.09,177.81L774.49,172.79L776.53,156.89L784.06,157.89L785.2,152.62L790.33,150.25L791.93,141.16L801.05,137.47L811.18,130.9L814.61,124.94L829.42,118.71L837.07,120.89L854.33,104.6L854.15,115.85L858.66,123.99L856.55,129.3L863.33,135.24L869.09,145.02L878.44,152.12L882.44,159.36L890.34,158.08L890.34,190.88L898.39,196.54L904.42,206.64L912.4,208.4L923.58,215.74L940.41,215.58L947.14,218.59L949.59,226.1L960,232.37L955.43,243.67L958.28,248.58L954.01,256.21L954.41,263.09L949.87,267.49L956.8,274.75L956.57,283.63L941.71,289.36L939.52,293.38L929.05,297.5L922.33,303.64L913.57,306.22L905.41,301.47L899.81,308.76L889.5,325.68Z" fill="#dadada" stroke="#fff" stroke-width="0.5" id="NG-BO" data-name="Borno"/>
    <path d="M299.08,867.13L284.55,867.38L290.52,858.02L293.38,862L295.48,862.56ZM221.91,800.36L237.07,809.68L241.28,809.64L250.95,804.3L270.92,801.96L287.92,792.89L290.52,787.56L298.57,787.5L306.69,783.54L305.69,780.33L314.29,781.89L315.14,786.41L308.48,797.01L304.91,796.78L299.11,806.98L300.11,815.21L296.57,827L302.75,834.71L311.2,831.41L317.11,839.57L323.1,842.82L319.21,858.42L321.94,864.57L302.03,866.66L297.81,864.97L295.75,862.1L294.01,861.76L293.64,854.94L283.89,862.16L283.37,869.25L272.59,870.16L264.33,867.1L240.56,849.01L229.36,833.73L222.58,820.67L215.82,801.7Z" fill="#dadada" stroke="#fff" stroke-width="0.5" id="NG-BY" data-name="Bayelsa"/>
    <path d="M449.03,676.9L457.7,671.43L467.81,671.9L475.9,668.32L474.9,662.47L485.32,659.36L492.33,661.56L503.49,668.56L503.36,676.89L510.59,678.63L522.95,675.71L528.87,676.93L536.02,684.38L543.16,695.03L540.37,705.87L532.66,707.97L526.9,716.47L522.73,717.68L517.85,724.02L492.94,745.42L495.21,747.89L491.23,755.77L498.22,765.4L492.85,775.55L490.78,788.26L490.97,796.79L483.41,805.71L480.3,813.13L467.47,829.98L468.21,834.88L451.1,831.62L436.6,817.37L430.09,804.31L430.37,793.65L423.96,790.17L417.8,790.89L417.44,782.32L421.86,783.31L416.73,767.61L415.9,756.18L418.95,745.56L423.83,739.19L422.7,732.42L429.03,730.78L432.5,736.63L442.65,728.62L457.55,709.89L455.17,704.69L461.19,697.79L455.72,686.5Z" fill="#dadada" stroke="#fff" stroke-width="0.5" id="NG-CR" data-name="Cross River"/>
    <path d="M318.93,689.21L326.54,719.31L324.39,731.86L318.44,747.31L314.66,753.91L315.76,758.97L310,769.16L309.76,776.05L305.69,780.33L306.69,783.54L298.57,787.5L290.52,787.56L287.92,792.89L270.92,801.96L250.95,804.3L241.28,809.64L237.07,809.68L221.91,800.36L216.58,800.47L211.74,785.44L213.71,780.08L205.91,776.66L198.41,768.11L195.67,759.74L186,742.84L194.92,721.06L204.09,726.87L204.28,739.07L211.71,734.77L211.31,730.02L223.13,729.67L228.35,732.76L237.36,727.25L249.6,734.03L257.84,741.86L255.21,747.09L259.14,752.27L268.24,750.14L282.86,736.28L283.39,729.79L275.55,723.7L269.83,710.74L271.18,705.02L276.93,703.91L281.1,708.98L286.32,703.09L295.81,699.06L306.39,692.4L316.5,691.85Z" fill="#dadada" stroke="#fff" stroke-width="0.5" id="NG-DE" data-name="Delta"/>
    <path d="M411.89,680.55L417.71,688.52L423.1,686.05L424.71,675.34L432.98,675.15L437.76,670.19L445.74,668.4L449.03,676.9L455.72,686.5L461.19,697.79L455.17,704.69L457.55,709.89L442.65,728.62L432.5,736.63L429.03,730.78L422.7,732.42L423.83,739.19L418.95,745.56L415.9,756.18L410.03,752.86L407.23,746.25L389.02,745.12L388.37,733.44L393.05,732.14L399.35,737.73L399.9,728.72L404.39,722.92L400.94,707.97L404.48,700.02L404.49,692.45L401.25,680.3Z" fill="#dadada" stroke="#fff" stroke-width="0.5" id="NG-EB" data-name="Ebonyi"/>
    <path d="M267.97,604.53L275.41,607.91L274.59,615.23L278.73,616.94L286.41,613.12L294.13,620.42L301.31,619.71L305.99,630.47L315.7,628.05L321.56,636.67L319.34,654.13L314.09,665.02L314.54,674.99L318.84,688.83L318.93,689.21L316.5,691.85L306.39,692.4L295.81,699.06L286.32,703.09L281.1,708.98L276.93,703.91L271.18,705.02L269.83,710.74L275.55,723.7L283.39,729.79L282.86,736.28L268.24,750.14L259.14,752.27L255.21,747.09L257.84,741.86L249.6,734.03L237.36,727.25L228.35,732.76L223.13,729.67L211.31,730.02L211.71,734.77L204.28,739.07L204.09,726.87L194.92,721.06L184,708.3L186.23,702.47L190.79,700.54L195.67,688.67L191.53,682.99L192.45,675.12L198.15,669.39L201.11,661.98L226.78,661.26L229.14,674.01L234.97,669.86L239.28,672.4L244.7,666.66L248.01,649L251.64,643.68L256.23,631.57L263.12,623.22L260.1,614.79L261.64,609.67Z" fill="#dadada" stroke="#fff" stroke-width="0.5" id="NG-ED" data-name="Edo"/>
    <path d="M190.84,567.62L199.28,568.57L203.63,572.37L213.81,572.84L215.83,566.32L228.58,564.47L227.13,570.58L238.78,568.84L234.45,576.28L236.06,583.18L250.61,589.78L242.16,594.85L234.77,602.75L232.57,613.28L226.43,624.13L216.34,627.91L213.81,619.16L209.97,615.59L190.91,615.43L185.03,617.32L179.19,602.21L178.94,585.34L181.4,579.81L188.88,574.5Z" fill="#dadada" stroke="#fff" stroke-width="0.5" id="NG-EK" data-name="Ekiti"/>
    <path d="M338.16,668.8L341.68,662.28L348.26,668.27L354.68,661.26L362.41,656.25L370.39,646.59L380.59,641.68L385.17,644.76L388.54,653.92L400.68,663.85L406.24,660.16L413.68,664.89L414.84,672.2L411.89,680.55L401.25,680.3L404.49,692.45L404.48,700.02L400.94,707.97L404.39,722.92L399.9,728.72L399.35,737.73L393.05,732.14L388.37,733.44L385.29,729.81L374.78,729.61L365.67,727.04L360,711.9L352.16,697.24L346.67,695.03L347.71,689.64L353.26,683.53L354.42,678.01L343.79,673.86Z" fill="#dadada" stroke="#fff" stroke-width="0.5" id="NG-EN" data-name="Enugu"/>
    <path d="M370.55,465.11L386.02,464.71L391.11,460.62L395.74,464.04L390.37,477.38L390.22,496.64L385.69,513.83L377.05,526.86L368.06,531.59L358.31,534.55L343.93,536.81L332.49,537.21L328.29,536.87L326.37,528.71L325.39,489.41L325.86,471.66L344,470.12L359.36,481.15Z" fill="#dadada" stroke="#fff" stroke-width="0.5" id="NG-FC" data-name="Abuja Federal Capital Territory"/>
    <path d="M666.77,302.73L673.34,299.62L685.23,302.82L696.19,310.98L702.34,319.3L712.25,329.02L713.13,335.35L711.57,350.77L712.96,359.81L721.71,359.8L722.65,368.02L715.97,377.85L722.52,388.47L729.83,391.51L733.87,399.53L741.27,404.47L739.63,425.62L720.06,438.19L707.7,441.23L671.13,441.68L666.53,430.61L664.15,417.62L649.1,406.58L643.56,400.87L644.82,396.28L652.43,394.27L653.61,377.03L650.93,370.62L641.62,367.21L637.89,354.2L628.35,350.3L633.27,341.91L637.9,325.82L646.6,320.27L654.44,312.19L662.24,307.92Z" fill="#dadada" stroke="#fff" stroke-width="0.5" id="NG-GO" data-name="Gombe"/>
    <path d="M365.69,737.2L375.19,741.71L377.14,745.35L378.1,767.69L369.8,782.66L365.8,796L348.54,797.2L333.78,795.92L328.23,793.25L323.3,785.35L325.38,775.75L315.63,772.87L319.19,755.86L327.85,748.75L337.15,750.9L341.41,740.28L351.86,737.42L358.81,739.04Z" fill="#dadada" stroke="#fff" stroke-width="0.5" id="NG-IM" data-name="Imo"/>
    <path d="M559.65,177.7L569.73,180.19L576.5,172.66L599.28,164.14L602.13,165.76L607.67,180.92L616.68,177.57L628.15,180.82L630.99,185.24L634.4,204L620.11,213.01L617.6,208.01L607.24,211.25L598.57,238.02L599.34,243.4L575.63,252.73L568.55,256.7L560.6,257.3L555.8,268.74L569.55,268.46L572.11,279.82L568.86,286.33L576.06,288.81L578.03,295.41L584.86,305.06L588.74,307.46L615.84,310.84L615.76,316.29L601.05,324.63L600.03,332.19L592.42,329.38L585.19,331.19L577.83,329.64L575.04,325.21L576.11,315L571.97,305.84L551.89,306.97L549.57,302.21L542.28,303.16L523.63,298.83L524.94,291.09L534.13,282.14L526.62,276.52L522.65,269.06L516.5,263.99L520.84,257.88L522.21,249.64L519.27,240.29L512.76,245.1L507.89,239.79L501.38,240.34L500.52,224.23L489.91,221.72L486.85,212.76L480.45,208.19L479.87,200.5L469.83,197.88L457.56,202.6L454.35,210.67L448.29,198.5L445.62,194.17L434.78,191.87L436.23,178.56L449.66,176.77L456.59,178.05L468.51,177.04L471.84,184.72L484.86,189.78L495.01,186.79L503.82,176.78L518.46,176.84L530.1,178.69L536.88,177.72L557.67,179.32Z" fill="#dadada" stroke="#fff" stroke-width="0.5" id="NG-JI" data-name="Jigawa"/>
    <path d="M407.78,297.47L414.91,296.62L426.53,287.95L433.93,286.35L436.69,299.39L446.08,303.36L450.62,308.73L459.36,310.18L466.31,315.94L470.94,324.29L468.83,338.9L470.39,346.76L464.6,351.69L466.04,356.82L475.11,358.08L479.73,363.01L484.97,363.47L481.24,374.08L488.46,380.83L487.01,386.85L480.02,391.63L476.98,401.63L479.71,409.87L476.62,412.44L476.19,429.33L470.39,438.4L469.43,447.9L479.18,460.33L480.62,467.49L478.46,472.62L469.36,487.68L462.25,486.51L455.36,478.84L446.76,476.61L438.57,486.53L431.81,485.93L431.87,473.32L425.1,468.05L424.67,463.82L418.16,460.3L411.83,469.1L395.74,464.04L391.11,460.62L386.02,464.71L370.55,465.11L363.18,456.36L372.97,441.58L368.34,437.02L369.44,421.24L368.03,409.61L365.85,407.43L349.21,407.53L340.6,404.3L337.05,399.56L349.71,388.68L351.42,383.79L341.01,379.36L342.83,370.62L340.27,365.69L333.48,365.8L331.71,356.78L325.6,356.13L324.12,362.09L318.98,361.36L309.11,365.07L306.46,360.31L299.99,361.28L289.59,369.08L282.63,378.2L273.44,371.39L275.97,364.26L275.09,345.46L279.01,338.47L282.84,337.32L293.34,325.78L300.63,324.55L316.98,324.49L323.92,318.49L330.01,303.75L337.89,298.39L347.84,300.47L344.32,309.34L352.54,311.85L360.28,317.74L365.55,313.27L363.06,306.26L376.17,305.59L377.7,299.92L383.45,296.18L392.21,299.17L398.16,304.48L405.4,301.57Z" fill="#dadada" stroke="#fff" stroke-width="0.5" id="NG-KD" data-name="Kaduna"/>
    <path d="M116.05,145.73L127,146.52L132.99,144.46L141.59,151.42L161.71,159.05L168.09,152.97L171.5,155.33L167.14,172.26L171.88,180.61L170.02,195.46L172.18,202.65L171.87,213.07L157.06,214.06L154.11,220.9L154.95,250.8L152.2,263.52L147.34,277.05L155.21,282.84L160.51,277.18L176.02,270.1L187.59,271.23L196.35,273.54L204.55,271.63L208.01,267.61L216.54,268.01L220.12,273.03L228.54,276.31L240.52,275.98L245.31,274.16L257.19,277.27L259,283.27L256.35,293.27L265.8,300.71L267.86,317.7L263.7,315.8L257.63,322.24L252.55,322.78L236.92,329.38L223.13,330.28L221.01,328.66L220.41,314.86L214.51,310.01L213.25,301.53L202.7,298.49L179.79,302.94L167.79,308.41L167.36,314.74L179.02,320.21L185.95,320.89L190.52,324.43L191.97,332.97L188.64,340.04L193.69,343.93L192.31,348.55L180.65,353.25L171.02,354.1L172.01,372.02L176.75,378.54L177.36,383.7L171.66,388.5L157.7,392.1L157.05,399.71L148.92,398.44L150.59,386.09L145.35,379.5L145.59,371.27L151.78,363.11L162.8,355.49L166.2,336.29L159.77,334.08L148.91,326.66L142.14,324.47L108.8,326.25L101.9,324.03L87.63,316.12L82.75,316.33L81.08,316.31L65.41,302.95L71.01,276.43L73.74,270.3L80.06,264.87L75.87,258.26L75.14,251.93L79.23,246.94L76.19,235.55L78.32,223.16L77.12,202.55L101.1,182.55L113.41,163.54Z" fill="#dadada" stroke="#fff" stroke-width="0.5" id="NG-KE" data-name="Kebbi"/>
    <path d="M448.29,198.5L454.35,210.67L457.56,202.6L469.83,197.88L479.87,200.5L480.45,208.19L486.85,212.76L489.91,221.72L500.52,224.23L501.38,240.34L507.89,239.79L512.76,245.1L519.27,240.29L522.21,249.64L520.84,257.88L516.5,263.99L522.65,269.06L526.62,276.52L534.13,282.14L524.94,291.09L523.63,298.83L516.51,301.66L511.38,300.54L501.18,309.43L494.21,318.96L486.77,319.98L484.13,330.47L485.22,342.01L491.31,352.41L484.97,363.47L479.73,363.01L475.11,358.08L466.04,356.82L464.6,351.69L470.39,346.76L468.83,338.9L470.94,324.29L466.31,315.94L459.36,310.18L450.62,308.73L446.08,303.36L436.69,299.39L433.93,286.35L426.53,287.95L414.91,296.62L407.78,297.47L403.13,293.99L400.68,286.36L402.73,280.01L417.83,273.49L413.77,263.34L411.93,252.11L413.05,243.89L412.49,224.1L420.8,218.06L436.44,211.34L440.66,199.64Z" fill="#dadada" stroke="#fff" stroke-width="0.5" id="NG-KN" data-name="Kano"/>
    <path d="M282.57,511.43L289,514.23L297.12,524.08L300.41,534.81L308.71,541.3L319.3,554.07L332.49,537.21L343.93,536.81L341.16,543.7L345.04,550.48L345.74,558.51L344.18,570.73L347.18,577.41L359.14,572.12L375.16,567.74L384.3,566.83L398.88,568.46L399.16,579.78L406.02,589.77L406.77,607.6L408.37,614.79L414.28,615.75L410.49,634.66L397.9,642.76L396.23,650.39L385.17,644.76L380.59,641.68L370.39,646.59L362.41,656.25L354.68,661.26L348.26,668.27L341.68,662.28L338.16,668.8L331.54,675.36L329.86,684.26L325.64,688.69L318.84,688.83L314.54,674.99L314.09,665.02L319.34,654.13L321.56,636.67L315.7,628.05L305.99,630.47L301.31,619.71L294.13,620.42L286.41,613.12L278.73,616.94L274.59,615.23L275.41,607.91L267.97,604.53L258.91,594.58L259.83,589.19L250.61,589.78L236.06,583.18L234.45,576.28L238.78,568.84L227.13,570.58L228.58,564.47L228.49,559.46L222.34,556.1L213.36,544.11L219.31,534.57L228.75,526.34L233.84,532.04L248.88,537.46L273.54,539.25L279.39,515.79Z" fill="#dadada" stroke="#fff" stroke-width="0.5" id="NG-KO" data-name="Kogi"/>
    <path d="M503.82,176.78L495.01,186.79L484.86,189.78L471.84,184.72L468.51,177.04L456.59,178.05L449.66,176.77L436.23,178.56L434.78,191.87L445.62,194.17L448.29,198.5L440.66,199.64L436.44,211.34L420.8,218.06L412.49,224.1L413.05,243.89L411.93,252.11L413.77,263.34L417.83,273.49L402.73,280.01L400.68,286.36L403.13,293.99L407.78,297.47L405.4,301.57L398.16,304.48L392.21,299.17L383.45,296.18L377.7,299.92L376.17,305.59L363.06,306.26L365.55,313.27L360.28,317.74L352.54,311.85L344.32,309.34L347.84,300.47L337.89,298.39L339.53,287.43L335.89,280.16L339.13,263.3L351.25,263.17L362.59,254.89L364.38,250.25L354.53,242.33L358.29,230.91L353.11,214.77L350.13,193.05L348.94,177.18L350.8,163.1L357.09,161.06L363.91,154.09L379.77,154.14L410.01,135.74L434.21,139.44L446.14,146.16L458.92,158.69L470.85,160.06L477.54,168.24Z" fill="#dadada" stroke="#fff" stroke-width="0.5" id="NG-KT" data-name="Katsina"/>
    <path d="M79.33,397.56L100.92,395.92L105.58,397.12L123.65,417.75L133.47,430.2L139.96,432.65L139.45,449.53L142.27,454.81L152.05,453.78L154.75,464.46L164.21,468.82L166.33,478.65L171.37,480.36L186.32,475.51L196.35,480.86L204.55,490.26L212.58,489.65L224.06,492.44L251.44,510.38L271.9,509.22L282.57,511.43L279.39,515.79L273.54,539.25L248.88,537.46L233.84,532.04L228.75,526.34L219.31,534.57L213.36,544.11L222.34,556.1L228.49,559.46L228.58,564.47L215.83,566.32L213.81,572.84L203.63,572.37L199.28,568.57L190.84,567.62L183.67,568.12L178.94,563.25L164.22,567.21L150.16,567.33L146.75,565.15L142.74,553.4L134.45,544.95L131.74,534.14L123.17,518.99L120.42,510.06L121.75,504.2L132.74,492.52L117.95,491.03L107.49,486.75L95.14,474.53L87.56,477.35L84.77,487.07L54.43,505.36L45.39,509.59L37.54,507.59L19.21,522.43L9.82,523.38L5.7,527L5.77,513.47L4.01,507.61L8.84,491.62L8.21,483.94L32.79,480.98L38.31,466.33L36.21,453.55L45.71,440.38L53.76,432.06L53.51,422.89L62.24,419.38L68.09,419.31L73.91,411.57L74.97,401.97Z" fill="#dadada" stroke="#fff" stroke-width="0.5" id="NG-KW" data-name="Kwara"/>
    <path d="M3.17,693.17L11.69,694.29L21.28,689.58L38.99,689.33L45.92,674.41L55.31,679.5L62.61,675.61L111.18,676.11L110.42,686.03L118.33,690.35L119.08,693.58L133.12,696.55L133.11,701.25L102.44,696.49L91.33,695.88L78.53,697.11L59.01,697.31L50.65,698.68L14.97,699.64L2.7,701.07Z" fill="#dadada" stroke="#fff" stroke-width="0.5" id="NG-LA" data-name="Lagos"/>
    <path d="M395.74,464.04L411.83,469.1L418.16,460.3L424.67,463.82L425.1,468.05L431.87,473.32L431.81,485.93L438.57,486.53L446.76,476.61L455.36,478.84L462.25,486.51L469.36,487.68L478.46,472.62L486.47,476.01L487.28,481.83L492.56,487.54L511.74,490.13L507.22,499.15L500.79,503.35L496.37,511.77L500.32,518.77L501.79,528.5L513.17,533.72L523.75,533.53L536.37,529.9L549.75,535.53L554.89,541.71L548.02,547.56L532.22,544.65L529.55,551.14L534.39,556.18L535.29,565.8L519.21,576.99L503.98,565.38L498.85,566.57L483.68,564.01L470.65,559.19L462.06,559.21L456.96,562.07L454.13,570.9L460.21,586.05L458.63,589.24L447.44,582.7L439.28,581.59L421.66,573.31L398.88,568.46L384.3,566.83L375.16,567.74L359.14,572.12L347.18,577.41L344.18,570.73L345.74,558.51L345.04,550.48L341.16,543.7L343.93,536.81L358.31,534.55L368.06,531.59L377.05,526.86L385.69,513.83L390.22,496.64L390.37,477.38Z" fill="#dadada" stroke="#fff" stroke-width="0.5" id="NG-NA" data-name="Nasarawa"/>
    <path d="M82.75,316.33L87.63,316.12L101.9,324.03L108.8,326.25L142.14,324.47L148.91,326.66L159.77,334.08L166.2,336.29L162.8,355.49L151.78,363.11L145.59,371.27L145.35,379.5L150.59,386.09L148.92,398.44L157.05,399.71L157.7,392.1L171.66,388.5L177.36,383.7L176.75,378.54L172.01,372.02L171.02,354.1L180.65,353.25L192.31,348.55L193.69,343.93L188.64,340.04L191.97,332.97L190.52,324.43L185.95,320.89L179.02,320.21L167.36,314.74L167.79,308.41L179.79,302.94L202.7,298.49L213.25,301.53L214.51,310.01L220.41,314.86L221.01,328.66L223.13,330.28L236.92,329.38L252.55,322.78L257.63,322.24L263.7,315.8L267.86,317.7L277.05,332.05L279.01,338.47L275.09,345.46L275.97,364.26L273.44,371.39L282.63,378.2L289.59,369.08L299.99,361.28L306.46,360.31L309.11,365.07L318.98,361.36L324.12,362.09L325.6,356.13L331.71,356.78L333.48,365.8L340.27,365.69L342.83,370.62L341.01,379.36L351.42,383.79L349.71,388.68L337.05,399.56L340.6,404.3L349.21,407.53L365.85,407.43L368.03,409.61L369.44,421.24L368.34,437.02L372.97,441.58L363.18,456.36L370.55,465.11L359.36,481.15L344,470.12L325.86,471.66L325.39,489.41L326.37,528.71L328.29,536.87L332.49,537.21L319.3,554.07L308.71,541.3L300.41,534.81L297.12,524.08L289,514.23L282.57,511.43L271.9,509.22L251.44,510.38L224.06,492.44L212.58,489.65L204.55,490.26L196.35,480.86L186.32,475.51L171.37,480.36L166.33,478.65L164.21,468.82L154.75,464.46L152.05,453.78L142.27,454.81L139.45,449.53L139.96,432.65L133.47,430.2L123.65,417.75L105.58,397.12L100.92,395.92L79.33,397.56L79.97,393.62L72.46,385.49L77.41,372.75L80.74,371.01L88.6,375.16L93.86,358.86L93,350.79L85.68,341.04L87.42,332.4L83.08,324.78Z" fill="#dadada" stroke="#fff" stroke-width="0.5" id="NG-NI" data-name="Niger"/>
    <path d="M0,578.38L7.71,572.8L14.68,573.74L16.81,577.93L17.73,589.42L25.96,583.77L26.45,590.06L23.7,603.02L30.37,609.51L35.83,619.33L42.74,623.86L50.22,623.6L55.29,612.91L60.74,611.37L65.06,618.48L71.03,615.92L79.04,616.2L80.97,626.03L85.36,628.54L88,640.1L82.92,647.15L98.21,646.24L111.89,641.7L117.24,638.85L119.88,646.01L131.78,644.2L135.62,653.44L139.58,650.89L150.6,651.71L148.27,663.1L137.88,671.36L134.03,677.76L136.67,684.75L145.24,685.65L152.32,681.66L153.39,692.12L146.88,697.72L151.2,702.09L145.23,705.37L133.11,701.25L133.12,696.55L119.08,693.58L118.33,690.35L110.42,686.03L111.18,676.11L62.61,675.61L55.31,679.5L45.92,674.41L38.99,689.33L21.28,689.58L11.69,694.29L3.17,693.17L5.98,685.37L4.25,680.51L8.66,675.36L4.12,666.19L5.57,656.55L3.38,651.86L9.14,647.44L5.34,643.3L8.53,637.94L5.7,629.71L5.54,617.12L9.17,610.9L4.16,603.98L4.1,586.87Z" fill="#dadada" stroke="#fff" stroke-width="0.5" id="NG-OG" data-name="Ogun"/>
    <path d="M250.61,589.78L259.83,589.19L258.91,594.58L267.97,604.53L261.64,609.67L260.1,614.79L263.12,623.22L256.23,631.57L251.64,643.68L248.01,649L244.7,666.66L239.28,672.4L234.97,669.86L229.14,674.01L226.78,661.26L201.11,661.98L198.15,669.39L192.45,675.12L191.53,682.99L195.67,688.67L190.79,700.54L186.23,702.47L184,708.3L194.92,721.06L186,742.84L167.88,723.09L145.23,705.37L151.2,702.09L146.88,697.72L153.39,692.12L152.32,681.66L145.24,685.65L136.67,684.75L134.03,677.76L137.88,671.36L148.27,663.1L150.6,651.71L156.83,643.4L165.36,638.9L172.37,643.4L175.53,641.81L175.15,631.75L177.17,623.25L185.03,617.32L190.91,615.43L209.97,615.59L213.81,619.16L216.34,627.91L226.43,624.13L232.57,613.28L234.77,602.75L242.16,594.85Z" fill="#dadada" stroke="#fff" stroke-width="0.5" id="NG-ON" data-name="Ondo"/>
    <path d="M150.16,567.33L164.22,567.21L178.94,563.25L183.67,568.12L190.84,567.62L188.88,574.5L181.4,579.81L178.94,585.34L179.19,602.21L185.03,617.32L177.17,623.25L175.15,631.75L175.53,641.81L172.37,643.4L165.36,638.9L156.83,643.4L150.6,651.71L139.58,650.89L135.62,653.44L131.78,644.2L119.88,646.01L117.24,638.85L111.89,641.7L114.9,628.9L117.61,610.67L108.54,600.66L111.62,582.54L117.95,583.92L127.12,573.61L135.65,583.24L150.85,571.48Z" fill="#dadada" stroke="#fff" stroke-width="0.5" id="NG-OS" data-name="Osun"/>
    <path d="M5.7,527L9.82,523.38L19.21,522.43L37.54,507.59L45.39,509.59L54.43,505.36L84.77,487.07L87.56,477.35L95.14,474.53L107.49,486.75L117.95,491.03L132.74,492.52L121.75,504.2L120.42,510.06L123.17,518.99L131.74,534.14L134.45,544.95L142.74,553.4L146.75,565.15L150.16,567.33L150.85,571.48L135.65,583.24L127.12,573.61L117.95,583.92L111.62,582.54L108.54,600.66L117.61,610.67L114.9,628.9L111.89,641.7L98.21,646.24L82.92,647.15L88,640.1L85.36,628.54L80.97,626.03L79.04,616.2L71.03,615.92L65.06,618.48L60.74,611.37L55.29,612.91L50.22,623.6L42.74,623.86L35.83,619.33L30.37,609.51L23.7,603.02L26.45,590.06L25.96,583.77L17.73,589.42L16.81,577.93L14.68,573.74L7.71,572.8L0,578.38L4.04,564.69L6.06,553.02L1.39,543.85L6.29,531.08Z" fill="#dadada" stroke="#fff" stroke-width="0.5" id="NG-OY" data-name="Oyo"/>
    <path d="M488.46,380.83L498.15,381.45L502.52,393.1L502.48,409.21L516.65,406.36L521.59,413.19L521.63,422.44L518.55,428.25L532.57,443.56L545.84,445.83L558.81,445.07L564.48,443.23L568.21,436.46L574.36,434.76L570.57,425.06L574.87,420.86L599.97,433.08L614.28,439.25L630.48,448.96L632.49,454.08L633.09,469.94L636.06,474.95L637.93,494.65L635.62,498.65L619.89,506.28L605.13,508.86L593.12,523.62L583.94,528.51L574.02,538.47L559.86,542.03L554.89,541.71L549.75,535.53L536.37,529.9L523.75,533.53L513.17,533.72L501.79,528.5L500.32,518.77L496.37,511.77L500.79,503.35L507.22,499.15L511.74,490.13L492.56,487.54L487.28,481.83L486.47,476.01L478.46,472.62L480.62,467.49L479.18,460.33L469.43,447.9L470.39,438.4L476.19,429.33L476.62,412.44L479.71,409.87L476.98,401.63L480.02,391.63L487.01,386.85Z" fill="#dadada" stroke="#fff" stroke-width="0.5" id="NG-PL" data-name="Plateau"/>
    <path d="M390.13,851.44L390.16,851.46L392.33,855.61L379.27,856.99L373.09,852.87L370.89,844.98L376.71,847.14L378.77,848.66L381.08,848.68L384.78,847.17ZM353.54,848.07L354.11,855.7L347.83,856.06L344.4,838.73L350.65,842.22ZM329.83,828.99L335.49,833.39L343.14,848.75L345.99,861.4L334.61,859.96L330.68,848.35L332.69,841.88L328.19,838.23ZM323.1,842.82L317.11,839.57L311.2,831.41L302.75,834.71L296.57,827L300.11,815.21L299.11,806.98L304.91,796.78L308.48,797.01L315.14,786.41L314.29,781.89L305.69,780.33L309.76,776.05L310,769.16L315.76,758.97L314.66,753.91L319.19,755.86L315.63,772.87L325.38,775.75L323.3,785.35L328.23,793.25L333.78,795.92L348.54,797.2L365.8,796L367.42,801.91L359.92,812.98L357.94,819.23L362.9,822.85L371.98,821.1L378.55,822.14L385.39,826.29L388.73,833.83L388.33,848.07L383.16,846.18L381.02,848.32L378.54,848.03L376.6,844.95L374.96,846.21L371.69,845.09L369.02,842.88L366.82,845L361.87,844.78L359.2,839.16L350.52,833.52L342.4,837.02L331.74,825.6L324.81,828.41L327.57,838.09L331.72,842.39L329.28,846.58L332.34,859.44L322.83,863.01L321.7,850.86Z" fill="#dadada" stroke="#fff" stroke-width="0.5" id="NG-RI" data-name="Rivers"/>
    <path d="M327.64,147.54L314.55,156.12L302.27,154.46L297.6,150.92L288.25,149.8L285.9,159.66L278.81,157.8L269.82,162.19L270.77,180.76L263.81,184.2L243,186.45L235.47,197.61L229.07,202.53L231.83,217.83L227.69,223.99L202.75,225.15L190.7,222.98L188.31,229.63L188.44,253.32L187.59,271.23L176.02,270.1L160.51,277.18L155.21,282.84L147.34,277.05L152.2,263.52L154.95,250.8L154.11,220.9L157.06,214.06L171.87,213.07L172.18,202.65L170.02,195.46L171.88,180.61L167.14,172.26L171.5,155.33L168.09,152.97L161.71,159.05L141.59,151.42L132.99,144.46L127,146.52L116.05,145.73L116.15,124.37L121.51,124.33L142.9,105.38L175.37,98.86L178.47,101.65L207.34,101.86L214.13,93.72L227.82,89.84L245.96,97.88L272.48,107.3L277.65,110.36L288.36,108.39L299.4,113.75L319.9,133.99Z" fill="#dadada" stroke="#fff" stroke-width="0.5" id="NG-SO" data-name="Sokoto"/>
    <path d="M630.48,448.96L636.41,445.51L643.97,446.53L657.65,440.22L671.13,441.68L707.7,441.23L716.62,456.97L725.33,460.04L732.11,472.82L731.96,480.64L740.74,486.39L743.7,493.72L734.66,513.32L734.59,523.53L726.68,530.33L715.52,545.31L704.05,556.62L697.64,564.89L700.91,573.65L708.16,582.95L715.33,575.15L721.26,576.67L734.19,591.76L733.43,598.9L738.91,614.94L732.52,622.07L729.97,628.4L731.86,645.8L723.1,646.02L712.04,658.51L709.92,677.83L707.3,682.19L700.3,683.02L699.5,687.89L692.07,690.61L678.67,685.94L673.71,687.73L674.02,676.38L659.39,674.47L651.08,662.39L653.22,656.17L647.09,654.48L640.17,647.41L633.74,644.66L629.1,655.51L623.33,657.57L603.05,659.54L598.04,647.58L583.46,660.89L576.05,669.32L569.41,667.96L562.39,689.73L557.26,689.16L559.72,678.51L559.39,664.76L562.12,649.8L566.39,641.79L576.03,633.17L575.65,625.48L579.47,613.62L577.76,607.34L566.95,597.48L554.57,583.76L534.34,580.84L524.68,582.08L516.78,585.51L519.21,576.99L535.29,565.8L534.39,556.18L529.55,551.14L532.22,544.65L548.02,547.56L554.89,541.71L559.86,542.03L574.02,538.47L583.94,528.51L593.12,523.62L605.13,508.86L619.89,506.28L635.62,498.65L637.93,494.65L636.06,474.95L633.09,469.94L632.49,454.08Z" fill="#dadada" stroke="#fff" stroke-width="0.5" id="NG-TA" data-name="Taraba"/>
    <path d="M776.53,156.89L774.49,172.79L776.09,177.81L784.16,185.16L784.79,190.03L779.35,199.51L770.22,207.72L771.67,223.09L768.22,248.82L770.41,258.51L764.31,270.39L771.67,273.11L775.72,277.97L775.52,285.05L769.66,290.81L760.5,306.56L761.21,319.64L750.62,328.4L736.13,332.32L729.69,342.11L730.04,353.02L721.71,359.8L712.96,359.81L711.57,350.77L713.13,335.35L712.25,329.02L702.34,319.3L696.19,310.98L685.23,302.82L673.34,299.62L666.77,302.73L660.75,300.25L663.67,281.51L652.89,254.3L650.7,233.48L646.62,227.42L644.39,212.04L634.4,204L630.99,185.24L628.15,180.82L616.68,177.57L607.67,180.92L602.13,165.76L599.28,164.14L576.5,172.66L569.73,180.19L559.65,177.7L573.39,161.98L585.37,149.79L602.21,141.21L622.95,140L639.18,133.88L664.48,132.49L695.04,132.63L707.39,134.19L721.29,139.63L736.39,142.95L753.96,155.52L761.84,153.12Z" fill="#dadada" stroke="#fff" stroke-width="0.5" id="NG-YO" data-name="Yobe"/>
    <path d="M350.8,163.1L348.94,177.18L350.13,193.05L353.11,214.77L358.29,230.91L354.53,242.33L364.38,250.25L362.59,254.89L351.25,263.17L339.13,263.3L335.89,280.16L339.53,287.43L337.89,298.39L330.01,303.75L323.92,318.49L316.98,324.49L300.63,324.55L293.34,325.78L282.84,337.32L279.01,338.47L277.05,332.05L267.86,317.7L265.8,300.71L256.35,293.27L259,283.27L257.19,277.27L245.31,274.16L240.52,275.98L228.54,276.31L220.12,273.03L216.54,268.01L208.01,267.61L204.55,271.63L196.35,273.54L187.59,271.23L188.44,253.32L188.31,229.63L190.7,222.98L202.75,225.15L227.69,223.99L231.83,217.83L229.07,202.53L235.47,197.61L243,186.45L263.81,184.2L270.77,180.76L269.82,162.19L278.81,157.8L285.9,159.66L288.25,149.8L297.6,150.92L302.27,154.46L314.55,156.12L327.64,147.54L339.93,164.03Z" fill="#dadada" stroke="#fff" stroke-width="0.5" id="NG-ZA" data-name="Zamfara"/>
</svg>